M48
; DRILL file {KiCad 7.0.8} date Sun Jun  1 22:45:11 2025
; FORMAT={-:-/ absolute / metric / decimal}
; #@! TF.CreationDate,2025-06-01T22:45:11-07:00
; #@! TF.GenerationSoftware,Kicad,Pcbnew,7.0.8
; #@! TF.FileFunction,Plated,1,2,PTH
FMAT,2
METRIC
; #@! TA.AperFunction,Plated,PTH,ViaDrill
T1C0.300
; #@! TA.AperFunction,Plated,PTH,ViaDrill
T2C0.400
; #@! TA.AperFunction,Plated,PTH,ComponentDrill
T3C0.550
; #@! TA.AperFunction,Plated,PTH,ComponentDrill
T4C0.850
; #@! TA.AperFunction,Plated,PTH,ComponentDrill
T5C1.000
%
G90
G05
T1
X168.0Y-54.0
T2
X146.5Y-48.25
X149.6Y-56.4
X150.0Y-43.4
X151.2Y-51.4
X151.5Y-59.5
X151.5Y-64.25
X152.75Y-51.5
X153.75Y-54.89
X155.25Y-50.0
X157.75Y-56.75
X158.4Y-53.7
X158.97Y-68.0
X159.75Y-62.0
X160.469Y-68.0
X162.25Y-68.0
X162.75Y-58.5
X163.0Y-43.4
X163.749Y-68.0
X166.0Y-72.75
X171.0Y-59.75
X171.0Y-61.0
X172.0Y-65.0
X173.0Y-65.0
X176.8Y-53.2
X179.0Y-61.2
T5
X151.98Y-43.4
X154.52Y-43.4
X156.52Y-72.2
X157.06Y-43.4
X159.06Y-72.2
X159.6Y-43.4
X161.6Y-72.2
X164.14Y-72.2
X165.46Y-43.4
X168.0Y-43.4
X170.54Y-43.4
X173.08Y-43.4
T3
G00X178.67Y-50.625
M15
G01X179.32Y-50.625
M16
G05
G00X178.67Y-58.375
M15
G01X179.32Y-58.375
M16
G05
T4
G00X174.92Y-50.775
M15
G01X175.47Y-50.775
M16
G05
G00X174.92Y-58.225
M15
G01X175.47Y-58.225
M16
G05
T0
M30
