%TF.GenerationSoftware,KiCad,Pcbnew,7.0.8*%
%TF.CreationDate,2025-06-01T22:45:16-07:00*%
%TF.ProjectId,ohm_project,6f686d5f-7072-46f6-9a65-63742e6b6963,rev?*%
%TF.SameCoordinates,Original*%
%TF.FileFunction,Copper,L1,Top*%
%TF.FilePolarity,Positive*%
%FSLAX46Y46*%
G04 Gerber Fmt 4.6, Leading zero omitted, Abs format (unit mm)*
G04 Created by KiCad (PCBNEW 7.0.8) date 2025-06-01 22:45:16*
%MOMM*%
%LPD*%
G01*
G04 APERTURE LIST*
G04 Aperture macros list*
%AMRoundRect*
0 Rectangle with rounded corners*
0 $1 Rounding radius*
0 $2 $3 $4 $5 $6 $7 $8 $9 X,Y pos of 4 corners*
0 Add a 4 corners polygon primitive as box body*
4,1,4,$2,$3,$4,$5,$6,$7,$8,$9,$2,$3,0*
0 Add four circle primitives for the rounded corners*
1,1,$1+$1,$2,$3*
1,1,$1+$1,$4,$5*
1,1,$1+$1,$6,$7*
1,1,$1+$1,$8,$9*
0 Add four rect primitives between the rounded corners*
20,1,$1+$1,$2,$3,$4,$5,0*
20,1,$1+$1,$4,$5,$6,$7,0*
20,1,$1+$1,$6,$7,$8,$9,0*
20,1,$1+$1,$8,$9,$2,$3,0*%
G04 Aperture macros list end*
%TA.AperFunction,ComponentPad*%
%ADD10O,1.800000X1.150000*%
%TD*%
%TA.AperFunction,ComponentPad*%
%ADD11O,2.000000X1.450000*%
%TD*%
%TA.AperFunction,SMDPad,CuDef*%
%ADD12R,1.300000X0.450000*%
%TD*%
%TA.AperFunction,SMDPad,CuDef*%
%ADD13RoundRect,0.140000X0.170000X-0.140000X0.170000X0.140000X-0.170000X0.140000X-0.170000X-0.140000X0*%
%TD*%
%TA.AperFunction,ComponentPad*%
%ADD14R,1.700000X1.700000*%
%TD*%
%TA.AperFunction,ComponentPad*%
%ADD15O,1.700000X1.700000*%
%TD*%
%TA.AperFunction,SMDPad,CuDef*%
%ADD16RoundRect,0.250000X-0.250000X-0.475000X0.250000X-0.475000X0.250000X0.475000X-0.250000X0.475000X0*%
%TD*%
%TA.AperFunction,SMDPad,CuDef*%
%ADD17RoundRect,0.218750X-0.256250X0.218750X-0.256250X-0.218750X0.256250X-0.218750X0.256250X0.218750X0*%
%TD*%
%TA.AperFunction,SMDPad,CuDef*%
%ADD18R,1.200000X1.400000*%
%TD*%
%TA.AperFunction,SMDPad,CuDef*%
%ADD19RoundRect,0.075000X-0.662500X-0.075000X0.662500X-0.075000X0.662500X0.075000X-0.662500X0.075000X0*%
%TD*%
%TA.AperFunction,SMDPad,CuDef*%
%ADD20RoundRect,0.075000X-0.075000X-0.662500X0.075000X-0.662500X0.075000X0.662500X-0.075000X0.662500X0*%
%TD*%
%TA.AperFunction,SMDPad,CuDef*%
%ADD21RoundRect,0.135000X-0.185000X0.135000X-0.185000X-0.135000X0.185000X-0.135000X0.185000X0.135000X0*%
%TD*%
%TA.AperFunction,SMDPad,CuDef*%
%ADD22R,0.800000X1.000000*%
%TD*%
%TA.AperFunction,SMDPad,CuDef*%
%ADD23R,1.500000X0.700000*%
%TD*%
%TA.AperFunction,SMDPad,CuDef*%
%ADD24RoundRect,0.140000X0.140000X0.170000X-0.140000X0.170000X-0.140000X-0.170000X0.140000X-0.170000X0*%
%TD*%
%TA.AperFunction,SMDPad,CuDef*%
%ADD25R,1.500000X2.000000*%
%TD*%
%TA.AperFunction,SMDPad,CuDef*%
%ADD26R,3.800000X2.000000*%
%TD*%
%TA.AperFunction,SMDPad,CuDef*%
%ADD27RoundRect,0.135000X0.135000X0.185000X-0.135000X0.185000X-0.135000X-0.185000X0.135000X-0.185000X0*%
%TD*%
%TA.AperFunction,SMDPad,CuDef*%
%ADD28RoundRect,0.140000X-0.140000X-0.170000X0.140000X-0.170000X0.140000X0.170000X-0.140000X0.170000X0*%
%TD*%
%TA.AperFunction,SMDPad,CuDef*%
%ADD29RoundRect,0.100000X-0.100000X0.130000X-0.100000X-0.130000X0.100000X-0.130000X0.100000X0.130000X0*%
%TD*%
%TA.AperFunction,SMDPad,CuDef*%
%ADD30RoundRect,0.135000X-0.135000X-0.185000X0.135000X-0.185000X0.135000X0.185000X-0.135000X0.185000X0*%
%TD*%
%TA.AperFunction,SMDPad,CuDef*%
%ADD31RoundRect,0.250000X0.475000X-0.250000X0.475000X0.250000X-0.475000X0.250000X-0.475000X-0.250000X0*%
%TD*%
%TA.AperFunction,SMDPad,CuDef*%
%ADD32RoundRect,0.225000X0.225000X0.250000X-0.225000X0.250000X-0.225000X-0.250000X0.225000X-0.250000X0*%
%TD*%
%TA.AperFunction,SMDPad,CuDef*%
%ADD33RoundRect,0.135000X0.185000X-0.135000X0.185000X0.135000X-0.185000X0.135000X-0.185000X-0.135000X0*%
%TD*%
%TA.AperFunction,ViaPad*%
%ADD34C,0.800000*%
%TD*%
%TA.AperFunction,ViaPad*%
%ADD35C,0.700000*%
%TD*%
%TA.AperFunction,Conductor*%
%ADD36C,0.300000*%
%TD*%
%TA.AperFunction,Conductor*%
%ADD37C,0.250000*%
%TD*%
%TA.AperFunction,Conductor*%
%ADD38C,0.200000*%
%TD*%
%TA.AperFunction,Conductor*%
%ADD39C,0.500000*%
%TD*%
G04 APERTURE END LIST*
D10*
%TO.P,U3,6,Shield*%
%TO.N,GND*%
X178995000Y-50625000D03*
D11*
X175195000Y-50775000D03*
X175195000Y-58225000D03*
D10*
X178995000Y-58375000D03*
D12*
%TO.P,U3,5,GND*%
X175145000Y-53200000D03*
%TO.P,U3,4,ID*%
%TO.N,unconnected-(U3-ID-Pad4)*%
X175145000Y-53850000D03*
%TO.P,U3,3,D+*%
%TO.N,/USB_D+*%
X175145000Y-54500000D03*
%TO.P,U3,2,D-*%
%TO.N,/USB_D-*%
X175145000Y-55150000D03*
%TO.P,U3,1,VBUS*%
%TO.N,VBUS*%
X175145000Y-55800000D03*
%TD*%
D13*
%TO.P,C5,1*%
%TO.N,+3.3VA*%
X154500000Y-57230000D03*
%TO.P,C5,2*%
%TO.N,GND*%
X154500000Y-56270000D03*
%TD*%
D14*
%TO.P,J1,1,Pin_1*%
%TO.N,+3.3V*%
X173080000Y-43400000D03*
D15*
%TO.P,J1,2,Pin_2*%
%TO.N,/SWDIO*%
X170540000Y-43400000D03*
%TO.P,J1,3,Pin_3*%
%TO.N,/SWCLK*%
X168000000Y-43400000D03*
%TO.P,J1,4,Pin_4*%
%TO.N,GND*%
X165460000Y-43400000D03*
%TD*%
D16*
%TO.P,C12,2*%
%TO.N,GND*%
X169550000Y-60150000D03*
%TO.P,C12,1*%
%TO.N,VBUS*%
X167650000Y-60150000D03*
%TD*%
D17*
%TO.P,D1,1,K*%
%TO.N,/PWR_LED_K*%
X179000000Y-64712500D03*
%TO.P,D1,2,A*%
%TO.N,+3.3V*%
X179000000Y-66287500D03*
%TD*%
D18*
%TO.P,Y1,1,1*%
%TO.N,/HSE_IN*%
X149500000Y-52900000D03*
%TO.P,Y1,2,2*%
%TO.N,GND*%
X149500000Y-55100000D03*
%TO.P,Y1,3,3*%
%TO.N,/HSE_OUT*%
X151200000Y-55100000D03*
%TO.P,Y1,4,4*%
%TO.N,GND*%
X151200000Y-52900000D03*
%TD*%
D13*
%TO.P,C10,1*%
%TO.N,/HSE_IN*%
X152724000Y-53492000D03*
%TO.P,C10,2*%
%TO.N,GND*%
X152724000Y-52532000D03*
%TD*%
D19*
%TO.P,U1,1,VBAT*%
%TO.N,+3.3V*%
X156337500Y-53162500D03*
%TO.P,U1,2,PC13*%
%TO.N,unconnected-(U1-PC13-Pad2)*%
X156337500Y-53662500D03*
%TO.P,U1,3,PC14*%
%TO.N,unconnected-(U1-PC14-Pad3)*%
X156337500Y-54162500D03*
%TO.P,U1,4,PC15*%
%TO.N,unconnected-(U1-PC15-Pad4)*%
X156337500Y-54662500D03*
%TO.P,U1,5,PD0*%
%TO.N,/HSE_IN*%
X156337500Y-55162500D03*
%TO.P,U1,6,PD1*%
%TO.N,/HSE_OUT*%
X156337500Y-55662500D03*
%TO.P,U1,7,NRST*%
%TO.N,/NRST*%
X156337500Y-56162500D03*
%TO.P,U1,8,VSSA*%
%TO.N,GND*%
X156337500Y-56662500D03*
%TO.P,U1,9,VDDA*%
%TO.N,+3.3VA*%
X156337500Y-57162500D03*
%TO.P,U1,10,PA0*%
%TO.N,unconnected-(U1-PA0-Pad10)*%
X156337500Y-57662500D03*
%TO.P,U1,11,PA1*%
%TO.N,unconnected-(U1-PA1-Pad11)*%
X156337500Y-58162500D03*
%TO.P,U1,12,PA2*%
%TO.N,unconnected-(U1-PA2-Pad12)*%
X156337500Y-58662500D03*
D20*
%TO.P,U1,13,PA3*%
%TO.N,unconnected-(U1-PA3-Pad13)*%
X157750000Y-60075000D03*
%TO.P,U1,14,PA4*%
%TO.N,unconnected-(U1-PA4-Pad14)*%
X158250000Y-60075000D03*
%TO.P,U1,15,PA5*%
%TO.N,unconnected-(U1-PA5-Pad15)*%
X158750000Y-60075000D03*
%TO.P,U1,16,PA6*%
%TO.N,unconnected-(U1-PA6-Pad16)*%
X159250000Y-60075000D03*
%TO.P,U1,17,PA7*%
%TO.N,unconnected-(U1-PA7-Pad17)*%
X159750000Y-60075000D03*
%TO.P,U1,18,PB0*%
%TO.N,unconnected-(U1-PB0-Pad18)*%
X160250000Y-60075000D03*
%TO.P,U1,19,PB1*%
%TO.N,unconnected-(U1-PB1-Pad19)*%
X160750000Y-60075000D03*
%TO.P,U1,20,PB2*%
%TO.N,unconnected-(U1-PB2-Pad20)*%
X161250000Y-60075000D03*
%TO.P,U1,21,PB10*%
%TO.N,/I2C2_SCL*%
X161750000Y-60075000D03*
%TO.P,U1,22,PB11*%
%TO.N,/I2C2_SDA*%
X162250000Y-60075000D03*
%TO.P,U1,23,VSS*%
%TO.N,GND*%
X162750000Y-60075000D03*
%TO.P,U1,24,VDD*%
%TO.N,+3.3V*%
X163250000Y-60075000D03*
D19*
%TO.P,U1,25,PB12*%
%TO.N,unconnected-(U1-PB12-Pad25)*%
X164662500Y-58662500D03*
%TO.P,U1,26,PB13*%
%TO.N,unconnected-(U1-PB13-Pad26)*%
X164662500Y-58162500D03*
%TO.P,U1,27,PB14*%
%TO.N,unconnected-(U1-PB14-Pad27)*%
X164662500Y-57662500D03*
%TO.P,U1,28,PB15*%
%TO.N,unconnected-(U1-PB15-Pad28)*%
X164662500Y-57162500D03*
%TO.P,U1,29,PA8*%
%TO.N,unconnected-(U1-PA8-Pad29)*%
X164662500Y-56662500D03*
%TO.P,U1,30,PA9*%
%TO.N,unconnected-(U1-PA9-Pad30)*%
X164662500Y-56162500D03*
%TO.P,U1,31,PA10*%
%TO.N,unconnected-(U1-PA10-Pad31)*%
X164662500Y-55662500D03*
%TO.P,U1,32,PA11*%
%TO.N,/USB_D-*%
X164662500Y-55162500D03*
%TO.P,U1,33,PA12*%
%TO.N,/USB_D+*%
X164662500Y-54662500D03*
%TO.P,U1,34,PA13*%
%TO.N,/SWDIO*%
X164662500Y-54162500D03*
%TO.P,U1,35,VSS*%
%TO.N,GND*%
X164662500Y-53662500D03*
%TO.P,U1,36,VDD*%
%TO.N,+3.3V*%
X164662500Y-53162500D03*
D20*
%TO.P,U1,37,PA14*%
%TO.N,/SWCLK*%
X163250000Y-51750000D03*
%TO.P,U1,38,PA15*%
%TO.N,unconnected-(U1-PA15-Pad38)*%
X162750000Y-51750000D03*
%TO.P,U1,39,PB3*%
%TO.N,unconnected-(U1-PB3-Pad39)*%
X162250000Y-51750000D03*
%TO.P,U1,40,PB4*%
%TO.N,unconnected-(U1-PB4-Pad40)*%
X161750000Y-51750000D03*
%TO.P,U1,41,PB5*%
%TO.N,unconnected-(U1-PB5-Pad41)*%
X161250000Y-51750000D03*
%TO.P,U1,42,PB6*%
%TO.N,/UART1_TX*%
X160750000Y-51750000D03*
%TO.P,U1,43,PB7*%
%TO.N,/UART1_RX*%
X160250000Y-51750000D03*
%TO.P,U1,44,BOOT0*%
%TO.N,/BOOT0*%
X159750000Y-51750000D03*
%TO.P,U1,45,PB8*%
%TO.N,unconnected-(U1-PB8-Pad45)*%
X159250000Y-51750000D03*
%TO.P,U1,46,PB9*%
%TO.N,unconnected-(U1-PB9-Pad46)*%
X158750000Y-51750000D03*
%TO.P,U1,47,VSS*%
%TO.N,GND*%
X158250000Y-51750000D03*
%TO.P,U1,48,VDD*%
%TO.N,+3.3V*%
X157750000Y-51750000D03*
%TD*%
D14*
%TO.P,J3,1,Pin_1*%
%TO.N,+3.3V*%
X156520000Y-72200000D03*
D15*
%TO.P,J3,2,Pin_2*%
%TO.N,/I2C2_SCL*%
X159060000Y-72200000D03*
%TO.P,J3,3,Pin_3*%
%TO.N,/I2C2_SDA*%
X161600000Y-72200000D03*
%TO.P,J3,4,Pin_4*%
%TO.N,GND*%
X164140000Y-72200000D03*
%TD*%
D14*
%TO.P,J2,1,Pin_1*%
%TO.N,+3.3V*%
X159600000Y-43400000D03*
D15*
%TO.P,J2,2,Pin_2*%
%TO.N,/UART1_TX*%
X157060000Y-43400000D03*
%TO.P,J2,3,Pin_3*%
%TO.N,/UART1_RX*%
X154520000Y-43400000D03*
%TO.P,J2,4,Pin_4*%
%TO.N,GND*%
X151980000Y-43400000D03*
%TD*%
D21*
%TO.P,R2,1*%
%TO.N,+3.3V*%
X170600000Y-52900000D03*
%TO.P,R2,2*%
%TO.N,/USB_D+*%
X170600000Y-53920000D03*
%TD*%
D22*
%TO.P,SW1,*%
%TO.N,*%
X145455000Y-48150000D03*
X143245000Y-48150000D03*
X145455000Y-55450000D03*
X143245000Y-55450000D03*
D23*
%TO.P,SW1,1,A*%
%TO.N,GND*%
X146105000Y-49550000D03*
%TO.P,SW1,2,B*%
%TO.N,/SW_BOOT0*%
X146105000Y-52550000D03*
%TO.P,SW1,3,C*%
%TO.N,+3.3V*%
X146105000Y-54050000D03*
%TD*%
D24*
%TO.P,C2,1*%
%TO.N,+3.3V*%
X164200000Y-61900000D03*
%TO.P,C2,2*%
%TO.N,GND*%
X163240000Y-61900000D03*
%TD*%
D25*
%TO.P,U2,1,GND*%
%TO.N,GND*%
X172500000Y-63100000D03*
%TO.P,U2,2,VO*%
%TO.N,+3.3V*%
X170200000Y-63100000D03*
D26*
X170200000Y-69400000D03*
D25*
%TO.P,U2,3,VI*%
%TO.N,VBUS*%
X167900000Y-63100000D03*
%TD*%
D27*
%TO.P,R4,1*%
%TO.N,+3.3V*%
X160740000Y-65400000D03*
%TO.P,R4,2*%
%TO.N,/I2C2_SCL*%
X159720000Y-65400000D03*
%TD*%
D28*
%TO.P,C3,1*%
%TO.N,+3.3V*%
X158014000Y-48410000D03*
%TO.P,C3,2*%
%TO.N,GND*%
X158974000Y-48410000D03*
%TD*%
D29*
%TO.P,C4,1*%
%TO.N,+3.3V*%
X166624000Y-52766000D03*
%TO.P,C4,2*%
%TO.N,GND*%
X166624000Y-53406000D03*
%TD*%
D28*
%TO.P,C1,1*%
%TO.N,+3.3V*%
X157986000Y-49680000D03*
%TO.P,C1,2*%
%TO.N,GND*%
X158946000Y-49680000D03*
%TD*%
D13*
%TO.P,C9,1*%
%TO.N,+3.3V*%
X155418000Y-51938000D03*
%TO.P,C9,2*%
%TO.N,GND*%
X155418000Y-50978000D03*
%TD*%
D30*
%TO.P,R5,1*%
%TO.N,+3.3V*%
X161980000Y-65400000D03*
%TO.P,R5,2*%
%TO.N,/I2C2_SDA*%
X163000000Y-65400000D03*
%TD*%
D31*
%TO.P,C13,1*%
%TO.N,+3.3V*%
X175000000Y-66400000D03*
%TO.P,C13,2*%
%TO.N,GND*%
X175000000Y-64500000D03*
%TD*%
D32*
%TO.P,C7,1*%
%TO.N,+3.3V*%
X152995000Y-62900000D03*
%TO.P,C7,2*%
%TO.N,GND*%
X151445000Y-62900000D03*
%TD*%
D28*
%TO.P,C8,1*%
%TO.N,/NRST*%
X157790000Y-61900000D03*
%TO.P,C8,2*%
%TO.N,GND*%
X158750000Y-61900000D03*
%TD*%
D33*
%TO.P,R3,1*%
%TO.N,/PWR_LED_K*%
X179000000Y-63200000D03*
%TO.P,R3,2*%
%TO.N,GND*%
X179000000Y-62180000D03*
%TD*%
D13*
%TO.P,C11,1*%
%TO.N,/HSE_OUT*%
X152724000Y-55750000D03*
%TO.P,C11,2*%
%TO.N,GND*%
X152724000Y-54790000D03*
%TD*%
D17*
%TO.P,FB1,1*%
%TO.N,+3.3VA*%
X154773000Y-61122000D03*
%TO.P,FB1,2*%
%TO.N,+3.3V*%
X154773000Y-62697000D03*
%TD*%
D21*
%TO.P,R1,1*%
%TO.N,/BOOT0*%
X148000000Y-48400000D03*
%TO.P,R1,2*%
%TO.N,/SW_BOOT0*%
X148000000Y-49420000D03*
%TD*%
D32*
%TO.P,C6,1*%
%TO.N,+3.3VA*%
X153025000Y-60750000D03*
%TO.P,C6,2*%
%TO.N,GND*%
X151475000Y-60750000D03*
%TD*%
D34*
%TO.N,GND*%
X158400000Y-53700000D03*
D35*
X168000000Y-54000000D03*
D34*
X179000000Y-61200000D03*
X150000000Y-43400000D03*
X163000000Y-43400000D03*
X176800000Y-53200000D03*
X151200000Y-51400000D03*
X149600000Y-56400000D03*
X166000000Y-72750000D03*
X146500000Y-48250000D03*
X152750000Y-51500000D03*
X151500000Y-59500000D03*
X151500000Y-64250000D03*
%TO.N,+3.3V*%
X160469500Y-68000000D03*
X158970500Y-68000000D03*
X162250000Y-68000000D03*
X163749500Y-68000000D03*
%TO.N,GND*%
X172000000Y-65000000D03*
X173000000Y-65000000D03*
X171000000Y-61000000D03*
X159750000Y-62000000D03*
X171000000Y-59750000D03*
X162750000Y-58500000D03*
X153750000Y-54890500D03*
X157750000Y-56750000D03*
X155250000Y-50000000D03*
%TD*%
D36*
%TO.N,GND*%
X176313629Y-53200000D02*
X176800000Y-53200000D01*
X175195000Y-52081371D02*
X176313629Y-53200000D01*
X175195000Y-50775000D02*
X175195000Y-52081371D01*
D37*
X167406000Y-53406000D02*
X168000000Y-54000000D01*
X166624000Y-53406000D02*
X167406000Y-53406000D01*
D36*
X180150000Y-57220000D02*
X178995000Y-58375000D01*
X180150000Y-50880000D02*
X180150000Y-57220000D01*
X179895000Y-50625000D02*
X180150000Y-50880000D01*
X178995000Y-50625000D02*
X179895000Y-50625000D01*
X175345000Y-50625000D02*
X175195000Y-50775000D01*
X158250000Y-53550000D02*
X158400000Y-53700000D01*
X158250000Y-51750000D02*
X158250000Y-53550000D01*
%TO.N,+3.3V*%
X157750000Y-53050000D02*
X157750000Y-51750000D01*
X157637500Y-53162500D02*
X157750000Y-53050000D01*
X156337500Y-53162500D02*
X157637500Y-53162500D01*
%TO.N,GND*%
X158250000Y-50686000D02*
X158250000Y-51750000D01*
X158946000Y-49990000D02*
X158250000Y-50686000D01*
X158946000Y-49680000D02*
X158946000Y-49990000D01*
%TO.N,+3.3V*%
X157986000Y-49680000D02*
X157750000Y-49916000D01*
X157750000Y-49916000D02*
X157750000Y-51750000D01*
%TO.N,/USB_D+*%
X170600000Y-53920000D02*
X170600000Y-54687500D01*
D38*
X170600000Y-54687500D02*
X174237524Y-54687500D01*
X165793751Y-54687500D02*
X170600000Y-54687500D01*
D36*
%TO.N,+3.3V*%
X168520000Y-52900000D02*
X170600000Y-52900000D01*
X168386000Y-52766000D02*
X168520000Y-52900000D01*
X168600000Y-52552000D02*
X168386000Y-52766000D01*
X168600000Y-49000000D02*
X168600000Y-52552000D01*
%TO.N,/I2C2_SCL*%
X161750000Y-61650000D02*
X161750000Y-60075000D01*
X159720000Y-63680000D02*
X161750000Y-61650000D01*
X159720000Y-65400000D02*
X159720000Y-63680000D01*
%TO.N,GND*%
X166000000Y-72750000D02*
X164690000Y-72750000D01*
X164690000Y-72750000D02*
X164140000Y-72200000D01*
%TO.N,/I2C2_SCL*%
X159720000Y-68780000D02*
X159060000Y-69440000D01*
X159720000Y-65400000D02*
X159720000Y-68780000D01*
X159060000Y-69440000D02*
X159060000Y-72200000D01*
%TO.N,+3.3V*%
X173080000Y-46400000D02*
X173080000Y-43400000D01*
X171200000Y-46400000D02*
X173080000Y-46400000D01*
X168600000Y-49000000D02*
X171200000Y-46400000D01*
X166624000Y-52800000D02*
X168386000Y-52800000D01*
D39*
X174200000Y-43400000D02*
X173080000Y-43400000D01*
X174600000Y-44600000D02*
X174600000Y-43800000D01*
X177100000Y-47100000D02*
X174600000Y-44600000D01*
X174600000Y-43800000D02*
X174200000Y-43400000D01*
X178300000Y-52200000D02*
X177100000Y-51000000D01*
X178300000Y-54900000D02*
X178300000Y-52200000D01*
X177100000Y-51000000D02*
X177100000Y-47100000D01*
X177250000Y-66400000D02*
X177250000Y-55950000D01*
X177250000Y-55950000D02*
X178300000Y-54900000D01*
%TO.N,GND*%
X163000000Y-43400000D02*
X165460000Y-43400000D01*
%TO.N,+3.3V*%
X154538000Y-51938000D02*
X155418000Y-51938000D01*
X154000000Y-51400000D02*
X154538000Y-51938000D01*
X154000000Y-50400000D02*
X154000000Y-51400000D01*
X153800000Y-50200000D02*
X154000000Y-50400000D01*
X150400000Y-50200000D02*
X153800000Y-50200000D01*
X149200000Y-51400000D02*
X150400000Y-50200000D01*
X148200000Y-51400000D02*
X149200000Y-51400000D01*
X147800000Y-51800000D02*
X148200000Y-51400000D01*
X147600000Y-58800000D02*
X147800000Y-58600000D01*
X146305000Y-58800000D02*
X147600000Y-58800000D01*
X146305000Y-58800000D02*
X146305000Y-54250000D01*
X147800000Y-58600000D02*
X147800000Y-51800000D01*
X146305000Y-63295000D02*
X146305000Y-58800000D01*
D36*
%TO.N,/BOOT0*%
X159750000Y-47750000D02*
X159750000Y-51750000D01*
X148500000Y-47500000D02*
X159500000Y-47500000D01*
X148000000Y-48000000D02*
X148500000Y-47500000D01*
X159500000Y-47500000D02*
X159750000Y-47750000D01*
X148000000Y-48400000D02*
X148000000Y-48000000D01*
D39*
%TO.N,/SW_BOOT0*%
X148000000Y-50600000D02*
X148000000Y-49420000D01*
X146800000Y-50600000D02*
X148000000Y-50600000D01*
X146105000Y-51295000D02*
X146800000Y-50600000D01*
X146105000Y-52550000D02*
X146105000Y-51295000D01*
%TO.N,+3.3V*%
X164200000Y-68400000D02*
X164200000Y-61900000D01*
X164700000Y-68900000D02*
X164200000Y-68400000D01*
X164700000Y-68900000D02*
X168600000Y-72800000D01*
X163800000Y-68000000D02*
X164700000Y-68900000D01*
X168600000Y-72800000D02*
X174600000Y-72800000D01*
X163749500Y-68000000D02*
X163800000Y-68000000D01*
X174600000Y-70200000D02*
X174600000Y-72800000D01*
X177250000Y-67550000D02*
X174600000Y-70200000D01*
X177250000Y-66400000D02*
X177250000Y-67550000D01*
%TO.N,GND*%
X179000000Y-62180000D02*
X179000000Y-61200000D01*
%TO.N,/PWR_LED_K*%
X179000000Y-64712500D02*
X179000000Y-63200000D01*
%TO.N,+3.3V*%
X179000000Y-66600000D02*
X179000000Y-66287500D01*
X146305000Y-54250000D02*
X146105000Y-54050000D01*
X149000000Y-66200000D02*
X146200000Y-63400000D01*
X154773000Y-66200000D02*
X149000000Y-66200000D01*
X154773000Y-66200000D02*
X154773000Y-62697000D01*
X146200000Y-63400000D02*
X146305000Y-63295000D01*
X154773000Y-66523000D02*
X154773000Y-66200000D01*
D36*
X161000000Y-41200000D02*
X159600000Y-42600000D01*
X159600000Y-42600000D02*
X159600000Y-43400000D01*
X172200000Y-41200000D02*
X161000000Y-41200000D01*
X173080000Y-43400000D02*
X173080000Y-42080000D01*
X173080000Y-42080000D02*
X172200000Y-41200000D01*
D39*
%TO.N,GND*%
X150000000Y-43400000D02*
X151980000Y-43400000D01*
D36*
%TO.N,/SWCLK*%
X168000000Y-45800000D02*
X168000000Y-43400000D01*
X163250000Y-50550000D02*
X168000000Y-45800000D01*
X163250000Y-51750000D02*
X163250000Y-50550000D01*
%TO.N,/SWDIO*%
X163823958Y-54162500D02*
X164662500Y-54162500D01*
X163575000Y-53913542D02*
X163823958Y-54162500D01*
X163575000Y-52911458D02*
X163575000Y-53913542D01*
X170540000Y-43400000D02*
X170540000Y-45946458D01*
X170540000Y-45946458D02*
X163575000Y-52911458D01*
D39*
%TO.N,GND*%
X176775000Y-53175000D02*
X176800000Y-53200000D01*
X176375000Y-53175000D02*
X176775000Y-53175000D01*
X176375000Y-53175000D02*
X175145000Y-53175000D01*
X176400000Y-53200000D02*
X176375000Y-53175000D01*
D36*
X151200000Y-52900000D02*
X151200000Y-51400000D01*
D39*
X149500000Y-55100000D02*
X149500000Y-56300000D01*
X149500000Y-56300000D02*
X149600000Y-56400000D01*
D36*
%TO.N,+3.3VA*%
X154500000Y-60849000D02*
X154773000Y-61122000D01*
X154500000Y-57230000D02*
X154500000Y-60849000D01*
D39*
%TO.N,+3.3V*%
X156250000Y-68000000D02*
X154773000Y-66523000D01*
X157750000Y-68000000D02*
X156250000Y-68000000D01*
X157750000Y-68000000D02*
X157500000Y-68000000D01*
X158970500Y-68000000D02*
X157750000Y-68000000D01*
%TO.N,GND*%
X152724000Y-51526000D02*
X152750000Y-51500000D01*
X152724000Y-52532000D02*
X152724000Y-51526000D01*
X146105000Y-49550000D02*
X146500000Y-49155000D01*
X146500000Y-49155000D02*
X146500000Y-48250000D01*
X151475000Y-59525000D02*
X151500000Y-59500000D01*
X151475000Y-60750000D02*
X151475000Y-59525000D01*
X151445000Y-64195000D02*
X151500000Y-64250000D01*
X151445000Y-62900000D02*
X151445000Y-64195000D01*
%TO.N,+3.3V*%
X157500000Y-68000000D02*
X156520000Y-68980000D01*
X156520000Y-68980000D02*
X156520000Y-72200000D01*
X161500000Y-68000000D02*
X160469500Y-68000000D01*
X161850000Y-65400000D02*
X161980000Y-65400000D01*
X161500000Y-65750000D02*
X161850000Y-65400000D01*
X161500000Y-65750000D02*
X161150000Y-65400000D01*
X161150000Y-65400000D02*
X160740000Y-65400000D01*
X161500000Y-68000000D02*
X161500000Y-65750000D01*
X162250000Y-68000000D02*
X161500000Y-68000000D01*
X177250000Y-66400000D02*
X178887500Y-66400000D01*
X175000000Y-66400000D02*
X177250000Y-66400000D01*
X178887500Y-66400000D02*
X179000000Y-66287500D01*
D36*
%TO.N,GND*%
X159650000Y-61900000D02*
X159750000Y-62000000D01*
X158750000Y-61900000D02*
X159650000Y-61900000D01*
%TO.N,/NRST*%
X157400000Y-61900000D02*
X157790000Y-61900000D01*
X156750000Y-61250000D02*
X157400000Y-61900000D01*
X156750000Y-59736458D02*
X156750000Y-61250000D01*
X159250000Y-57236458D02*
X156750000Y-59736458D01*
X158750000Y-56000000D02*
X159250000Y-56500000D01*
X157439339Y-56000000D02*
X158750000Y-56000000D01*
X157276839Y-56162500D02*
X157439339Y-56000000D01*
X159250000Y-56500000D02*
X159250000Y-57236458D01*
X156337500Y-56162500D02*
X157276839Y-56162500D01*
%TO.N,GND*%
X162750000Y-60075000D02*
X162750000Y-58500000D01*
X153649500Y-54790000D02*
X153750000Y-54890500D01*
X152724000Y-54790000D02*
X153649500Y-54790000D01*
X157662500Y-56662500D02*
X157750000Y-56750000D01*
X156337500Y-56662500D02*
X157662500Y-56662500D01*
%TO.N,/I2C2_SDA*%
X162250000Y-60075000D02*
X162250000Y-63000000D01*
X162250000Y-63000000D02*
X163000000Y-63750000D01*
X163000000Y-63750000D02*
X163000000Y-65400000D01*
X161600000Y-69900000D02*
X161600000Y-72200000D01*
X163000000Y-68500000D02*
X161600000Y-69900000D01*
X163000000Y-65400000D02*
X163000000Y-68500000D01*
D38*
%TO.N,/USB_D+*%
X174237524Y-54687500D02*
X174425024Y-54500000D01*
X164662500Y-54662500D02*
X165768751Y-54662500D01*
X165768751Y-54662500D02*
X165793751Y-54687500D01*
%TO.N,/USB_D-*%
X165793751Y-55137500D02*
X175107500Y-55137500D01*
X164662500Y-55162500D02*
X165768751Y-55162500D01*
X165768751Y-55162500D02*
X165793751Y-55137500D01*
X175107500Y-55137500D02*
X175132500Y-55162500D01*
D36*
X175132500Y-55162500D02*
X175145000Y-55150000D01*
%TO.N,/USB_D+*%
X174425024Y-54500000D02*
X175145000Y-54500000D01*
D39*
%TO.N,GND*%
X155418000Y-50168000D02*
X155250000Y-50000000D01*
X155418000Y-50978000D02*
X155418000Y-50168000D01*
D36*
%TO.N,/UART1_RX*%
X154520000Y-45770000D02*
X154520000Y-43400000D01*
X160250000Y-50000000D02*
X161250000Y-49000000D01*
X161250000Y-49000000D02*
X161250000Y-47000000D01*
X160750000Y-46500000D02*
X155250000Y-46500000D01*
X155250000Y-46500000D02*
X154520000Y-45770000D01*
X160250000Y-51750000D02*
X160250000Y-50000000D01*
X161250000Y-47000000D02*
X160750000Y-46500000D01*
%TO.N,/UART1_TX*%
X157060000Y-45310000D02*
X157060000Y-43400000D01*
X157500000Y-45750000D02*
X157060000Y-45310000D01*
X162250000Y-45750000D02*
X157500000Y-45750000D01*
X162500000Y-46000000D02*
X162250000Y-45750000D01*
X162500000Y-49161458D02*
X162500000Y-46000000D01*
X160750000Y-50911458D02*
X162500000Y-49161458D01*
X160750000Y-51750000D02*
X160750000Y-50911458D01*
%TO.N,/HSE_IN*%
X152266000Y-53950000D02*
X150455024Y-53950000D01*
X150455024Y-53950000D02*
X149500000Y-52994976D01*
X152724000Y-53492000D02*
X152266000Y-53950000D01*
X149500000Y-52994976D02*
X149500000Y-52900000D01*
X153828458Y-53492000D02*
X152724000Y-53492000D01*
X155498958Y-55162500D02*
X153828458Y-53492000D01*
X156337500Y-55162500D02*
X155498958Y-55162500D01*
%TO.N,/HSE_OUT*%
X152724000Y-55750000D02*
X151850000Y-55750000D01*
X151850000Y-55750000D02*
X151200000Y-55100000D01*
X154872966Y-55640000D02*
X152834000Y-55640000D01*
X154895466Y-55662500D02*
X154872966Y-55640000D01*
X156337500Y-55662500D02*
X154895466Y-55662500D01*
X152834000Y-55640000D02*
X152724000Y-55750000D01*
D37*
%TO.N,GND*%
X166624000Y-53406000D02*
X166530000Y-53500000D01*
D36*
X164662500Y-53662500D02*
X166367500Y-53662500D01*
X166367500Y-53662500D02*
X166624000Y-53406000D01*
%TO.N,+3.3V*%
X165059000Y-52766000D02*
X166624000Y-52766000D01*
X164662500Y-53162500D02*
X165059000Y-52766000D01*
X164200000Y-61025000D02*
X164200000Y-61900000D01*
X163250000Y-60075000D02*
X164200000Y-61025000D01*
%TO.N,GND*%
X162750000Y-61410000D02*
X163240000Y-61900000D01*
X162750000Y-60075000D02*
X162750000Y-61410000D01*
%TO.N,+3.3V*%
X152995000Y-62900000D02*
X154570000Y-62900000D01*
X154570000Y-62900000D02*
X154773000Y-62697000D01*
%TO.N,+3.3VA*%
X154401000Y-60750000D02*
X154773000Y-61122000D01*
X153025000Y-60750000D02*
X154401000Y-60750000D01*
X154567500Y-57162500D02*
X156337500Y-57162500D01*
X154500000Y-57230000D02*
X154567500Y-57162500D01*
%TO.N,GND*%
X155498958Y-56662500D02*
X156337500Y-56662500D01*
X155106458Y-56270000D02*
X155498958Y-56662500D01*
X154500000Y-56270000D02*
X155106458Y-56270000D01*
%TO.N,+3.3V*%
X157986000Y-48438000D02*
X158014000Y-48410000D01*
X157986000Y-49680000D02*
X157986000Y-48438000D01*
%TO.N,GND*%
X158946000Y-49680000D02*
X158946000Y-48438000D01*
X158946000Y-48438000D02*
X158974000Y-48410000D01*
%TO.N,+3.3V*%
X155418000Y-52243000D02*
X156337500Y-53162500D01*
X155418000Y-51938000D02*
X155418000Y-52243000D01*
D37*
%TO.N,GND*%
X166500000Y-53530000D02*
X166624000Y-53406000D01*
%TO.N,/HSE_IN*%
X149500000Y-52959620D02*
X149500000Y-52900000D01*
%TD*%
%TA.AperFunction,Conductor*%
%TO.N,GND*%
G36*
X172248324Y-58519685D02*
G01*
X172294079Y-58572489D01*
X172305262Y-58626384D01*
X172249999Y-61499999D01*
X172250000Y-61499999D01*
X172250000Y-61500000D01*
X176440877Y-61743220D01*
X176506663Y-61766756D01*
X176549281Y-61822122D01*
X176557692Y-61867012D01*
X176557692Y-65327520D01*
X176538007Y-65394559D01*
X176485203Y-65440314D01*
X176416045Y-65450258D01*
X176376000Y-65444500D01*
X176375998Y-65444500D01*
X171679500Y-65444500D01*
X171612461Y-65424815D01*
X171566706Y-65372011D01*
X171555500Y-65320500D01*
X171555500Y-62124010D01*
X171555500Y-62124000D01*
X171548518Y-62059059D01*
X171537312Y-62007549D01*
X171537313Y-62007550D01*
X171526355Y-61969345D01*
X171526354Y-61969344D01*
X171526354Y-61969342D01*
X171469675Y-61872429D01*
X171423920Y-61819625D01*
X171423918Y-61819623D01*
X171423908Y-61819612D01*
X171379192Y-61777451D01*
X171379189Y-61777449D01*
X171379187Y-61777447D01*
X171279111Y-61726561D01*
X171279110Y-61726560D01*
X171279109Y-61726560D01*
X171212078Y-61706877D01*
X171212072Y-61706876D01*
X171126000Y-61694500D01*
X169229500Y-61694500D01*
X169229491Y-61694500D01*
X169229490Y-61694501D01*
X169164564Y-61701481D01*
X169164552Y-61701483D01*
X169128182Y-61709395D01*
X169113049Y-61712687D01*
X169113050Y-61712687D01*
X169074845Y-61723644D01*
X169074837Y-61723648D01*
X169058782Y-61733038D01*
X168996182Y-61750000D01*
X168989800Y-61750000D01*
X168922761Y-61730315D01*
X168919127Y-61727889D01*
X168888833Y-61706876D01*
X168868077Y-61692479D01*
X168868074Y-61692477D01*
X168864439Y-61689956D01*
X168865059Y-61689061D01*
X168820822Y-61641572D01*
X168807692Y-61586039D01*
X168807692Y-58624000D01*
X168827377Y-58556961D01*
X168880181Y-58511206D01*
X168931692Y-58500000D01*
X172181285Y-58500000D01*
X172248324Y-58519685D01*
G37*
%TD.AperFunction*%
%TD*%
%TA.AperFunction,Conductor*%
%TO.N,+3.3V*%
G36*
X171193039Y-62019685D02*
G01*
X171238794Y-62072489D01*
X171250000Y-62124000D01*
X171250000Y-65750000D01*
X176376000Y-65750000D01*
X176443039Y-65769685D01*
X176488794Y-65822489D01*
X176500000Y-65874000D01*
X176500000Y-67626000D01*
X176480315Y-67693039D01*
X176427511Y-67738794D01*
X176376000Y-67750000D01*
X173500000Y-67750000D01*
X173500000Y-70626000D01*
X173480315Y-70693039D01*
X173427511Y-70738794D01*
X173376000Y-70750000D01*
X167874000Y-70750000D01*
X167806961Y-70730315D01*
X167761206Y-70677511D01*
X167750000Y-70626000D01*
X167750000Y-67374000D01*
X167769685Y-67306961D01*
X167822489Y-67261206D01*
X167874000Y-67250000D01*
X169000000Y-67250000D01*
X169000000Y-64600492D01*
X169018605Y-64537129D01*
X169018533Y-64537093D01*
X169018729Y-64536705D01*
X169019685Y-64533453D01*
X169022547Y-64529197D01*
X169022551Y-64529189D01*
X169022553Y-64529187D01*
X169073439Y-64429111D01*
X169093124Y-64362072D01*
X169105500Y-64276000D01*
X169105500Y-62124000D01*
X169125185Y-62056961D01*
X169177989Y-62011206D01*
X169229500Y-62000000D01*
X171126000Y-62000000D01*
X171193039Y-62019685D01*
G37*
%TD.AperFunction*%
%TD*%
%TA.AperFunction,Conductor*%
%TO.N,VBUS*%
G36*
X174248706Y-55557685D02*
G01*
X174269348Y-55574319D01*
X174322235Y-55627206D01*
X174425009Y-55672585D01*
X174450135Y-55675500D01*
X175839864Y-55675499D01*
X175861713Y-55672965D01*
X175930574Y-55684794D01*
X175982108Y-55731975D01*
X176000000Y-55796139D01*
X176000000Y-56076000D01*
X175980315Y-56143039D01*
X175927511Y-56188794D01*
X175876000Y-56200000D01*
X169599999Y-56200000D01*
X169399999Y-56399999D01*
X168400001Y-58599996D01*
X168400000Y-58599998D01*
X168400000Y-58600000D01*
X168400000Y-61800000D01*
X168400001Y-61800001D01*
X168731454Y-61965727D01*
X168782613Y-62013314D01*
X168800000Y-62076636D01*
X168800000Y-64276000D01*
X168780315Y-64343039D01*
X168727511Y-64388794D01*
X168676000Y-64400000D01*
X167124000Y-64400000D01*
X167056961Y-64380315D01*
X167011206Y-64327511D01*
X167000000Y-64276000D01*
X167000000Y-58524000D01*
X167019685Y-58456961D01*
X167072489Y-58411206D01*
X167124000Y-58400000D01*
X167999998Y-58400000D01*
X168000000Y-58400000D01*
X168978293Y-56052094D01*
X169022247Y-55997785D01*
X169053537Y-55982154D01*
X169580911Y-55806363D01*
X169620123Y-55800000D01*
X174000000Y-55800000D01*
X174000000Y-55662000D01*
X174019685Y-55594961D01*
X174072489Y-55549206D01*
X174124000Y-55538000D01*
X174181667Y-55538000D01*
X174248706Y-55557685D01*
G37*
%TD.AperFunction*%
%TD*%
M02*
