%TF.GenerationSoftware,KiCad,Pcbnew,7.0.8*%
%TF.CreationDate,2025-06-01T22:45:16-07:00*%
%TF.ProjectId,ohm_project,6f686d5f-7072-46f6-9a65-63742e6b6963,rev?*%
%TF.SameCoordinates,Original*%
%TF.FileFunction,Soldermask,Top*%
%TF.FilePolarity,Negative*%
%FSLAX46Y46*%
G04 Gerber Fmt 4.6, Leading zero omitted, Abs format (unit mm)*
G04 Created by KiCad (PCBNEW 7.0.8) date 2025-06-01 22:45:16*
%MOMM*%
%LPD*%
G01*
G04 APERTURE LIST*
G04 Aperture macros list*
%AMRoundRect*
0 Rectangle with rounded corners*
0 $1 Rounding radius*
0 $2 $3 $4 $5 $6 $7 $8 $9 X,Y pos of 4 corners*
0 Add a 4 corners polygon primitive as box body*
4,1,4,$2,$3,$4,$5,$6,$7,$8,$9,$2,$3,0*
0 Add four circle primitives for the rounded corners*
1,1,$1+$1,$2,$3*
1,1,$1+$1,$4,$5*
1,1,$1+$1,$6,$7*
1,1,$1+$1,$8,$9*
0 Add four rect primitives between the rounded corners*
20,1,$1+$1,$2,$3,$4,$5,0*
20,1,$1+$1,$4,$5,$6,$7,0*
20,1,$1+$1,$6,$7,$8,$9,0*
20,1,$1+$1,$8,$9,$2,$3,0*%
G04 Aperture macros list end*
%ADD10O,1.800000X1.150000*%
%ADD11O,2.000000X1.450000*%
%ADD12R,1.300000X0.450000*%
%ADD13O,0.800000X0.800000*%
%ADD14RoundRect,0.140000X0.170000X-0.140000X0.170000X0.140000X-0.170000X0.140000X-0.170000X-0.140000X0*%
%ADD15R,1.700000X1.700000*%
%ADD16O,1.700000X1.700000*%
%ADD17RoundRect,0.250000X-0.250000X-0.475000X0.250000X-0.475000X0.250000X0.475000X-0.250000X0.475000X0*%
%ADD18RoundRect,0.218750X-0.256250X0.218750X-0.256250X-0.218750X0.256250X-0.218750X0.256250X0.218750X0*%
%ADD19R,1.200000X1.400000*%
%ADD20RoundRect,0.075000X-0.662500X-0.075000X0.662500X-0.075000X0.662500X0.075000X-0.662500X0.075000X0*%
%ADD21RoundRect,0.075000X-0.075000X-0.662500X0.075000X-0.662500X0.075000X0.662500X-0.075000X0.662500X0*%
%ADD22C,2.200000*%
%ADD23RoundRect,0.135000X-0.185000X0.135000X-0.185000X-0.135000X0.185000X-0.135000X0.185000X0.135000X0*%
%ADD24R,0.800000X1.000000*%
%ADD25C,0.900000*%
%ADD26R,1.500000X0.700000*%
%ADD27RoundRect,0.140000X0.140000X0.170000X-0.140000X0.170000X-0.140000X-0.170000X0.140000X-0.170000X0*%
%ADD28R,1.500000X2.000000*%
%ADD29R,3.800000X2.000000*%
%ADD30RoundRect,0.135000X0.135000X0.185000X-0.135000X0.185000X-0.135000X-0.185000X0.135000X-0.185000X0*%
%ADD31RoundRect,0.140000X-0.140000X-0.170000X0.140000X-0.170000X0.140000X0.170000X-0.140000X0.170000X0*%
%ADD32RoundRect,0.100000X-0.100000X0.130000X-0.100000X-0.130000X0.100000X-0.130000X0.100000X0.130000X0*%
%ADD33RoundRect,0.135000X-0.135000X-0.185000X0.135000X-0.185000X0.135000X0.185000X-0.135000X0.185000X0*%
%ADD34RoundRect,0.250000X0.475000X-0.250000X0.475000X0.250000X-0.475000X0.250000X-0.475000X-0.250000X0*%
%ADD35RoundRect,0.225000X0.225000X0.250000X-0.225000X0.250000X-0.225000X-0.250000X0.225000X-0.250000X0*%
%ADD36RoundRect,0.135000X0.185000X-0.135000X0.185000X0.135000X-0.185000X0.135000X-0.185000X-0.135000X0*%
G04 APERTURE END LIST*
D10*
%TO.C,U3*%
X178995000Y-50625000D03*
D11*
X175195000Y-50775000D03*
X175195000Y-58225000D03*
D10*
X178995000Y-58375000D03*
D12*
X175145000Y-53200000D03*
X175145000Y-53850000D03*
X175145000Y-54500000D03*
X175145000Y-55150000D03*
X175145000Y-55800000D03*
D13*
X176245000Y-52000000D03*
X176245000Y-57000000D03*
%TD*%
D14*
%TO.C,C5*%
X154500000Y-57230000D03*
X154500000Y-56270000D03*
%TD*%
D15*
%TO.C,J1*%
X173080000Y-43400000D03*
D16*
X170540000Y-43400000D03*
X168000000Y-43400000D03*
X165460000Y-43400000D03*
%TD*%
D17*
%TO.C,C12*%
X169550000Y-60150000D03*
X167650000Y-60150000D03*
%TD*%
D18*
%TO.C,D1*%
X179000000Y-64712500D03*
X179000000Y-66287500D03*
%TD*%
D19*
%TO.C,Y1*%
X149500000Y-52900000D03*
X149500000Y-55100000D03*
X151200000Y-55100000D03*
X151200000Y-52900000D03*
%TD*%
D14*
%TO.C,C10*%
X152724000Y-53492000D03*
X152724000Y-52532000D03*
%TD*%
D20*
%TO.C,U1*%
X156337500Y-53162500D03*
X156337500Y-53662500D03*
X156337500Y-54162500D03*
X156337500Y-54662500D03*
X156337500Y-55162500D03*
X156337500Y-55662500D03*
X156337500Y-56162500D03*
X156337500Y-56662500D03*
X156337500Y-57162500D03*
X156337500Y-57662500D03*
X156337500Y-58162500D03*
X156337500Y-58662500D03*
D21*
X157750000Y-60075000D03*
X158250000Y-60075000D03*
X158750000Y-60075000D03*
X159250000Y-60075000D03*
X159750000Y-60075000D03*
X160250000Y-60075000D03*
X160750000Y-60075000D03*
X161250000Y-60075000D03*
X161750000Y-60075000D03*
X162250000Y-60075000D03*
X162750000Y-60075000D03*
X163250000Y-60075000D03*
D20*
X164662500Y-58662500D03*
X164662500Y-58162500D03*
X164662500Y-57662500D03*
X164662500Y-57162500D03*
X164662500Y-56662500D03*
X164662500Y-56162500D03*
X164662500Y-55662500D03*
X164662500Y-55162500D03*
X164662500Y-54662500D03*
X164662500Y-54162500D03*
X164662500Y-53662500D03*
X164662500Y-53162500D03*
D21*
X163250000Y-51750000D03*
X162750000Y-51750000D03*
X162250000Y-51750000D03*
X161750000Y-51750000D03*
X161250000Y-51750000D03*
X160750000Y-51750000D03*
X160250000Y-51750000D03*
X159750000Y-51750000D03*
X159250000Y-51750000D03*
X158750000Y-51750000D03*
X158250000Y-51750000D03*
X157750000Y-51750000D03*
%TD*%
D15*
%TO.C,J3*%
X156520000Y-72200000D03*
D16*
X159060000Y-72200000D03*
X161600000Y-72200000D03*
X164140000Y-72200000D03*
%TD*%
D15*
%TO.C,J2*%
X159600000Y-43400000D03*
D16*
X157060000Y-43400000D03*
X154520000Y-43400000D03*
X151980000Y-43400000D03*
%TD*%
D22*
%TO.C,H1*%
X145000000Y-43800000D03*
%TD*%
D23*
%TO.C,R2*%
X170600000Y-52900000D03*
X170600000Y-53920000D03*
%TD*%
D22*
%TO.C,H2*%
X178200000Y-43800000D03*
%TD*%
%TO.C,H3*%
X178200000Y-71800000D03*
%TD*%
D24*
%TO.C,SW1*%
X145455000Y-48150000D03*
X143245000Y-48150000D03*
D25*
X144345000Y-50300000D03*
X144345000Y-53300000D03*
D24*
X145455000Y-55450000D03*
X143245000Y-55450000D03*
D26*
X146105000Y-49550000D03*
X146105000Y-52550000D03*
X146105000Y-54050000D03*
%TD*%
D27*
%TO.C,C2*%
X164200000Y-61900000D03*
X163240000Y-61900000D03*
%TD*%
D22*
%TO.C,H4*%
X145000000Y-71800000D03*
%TD*%
D28*
%TO.C,U2*%
X172500000Y-63100000D03*
X170200000Y-63100000D03*
D29*
X170200000Y-69400000D03*
D28*
X167900000Y-63100000D03*
%TD*%
D30*
%TO.C,R4*%
X160740000Y-65400000D03*
X159720000Y-65400000D03*
%TD*%
D31*
%TO.C,C3*%
X158014000Y-48410000D03*
X158974000Y-48410000D03*
%TD*%
D32*
%TO.C,C4*%
X166624000Y-52766000D03*
X166624000Y-53406000D03*
%TD*%
D31*
%TO.C,C1*%
X157986000Y-49680000D03*
X158946000Y-49680000D03*
%TD*%
D14*
%TO.C,C9*%
X155418000Y-51938000D03*
X155418000Y-50978000D03*
%TD*%
D33*
%TO.C,R5*%
X161980000Y-65400000D03*
X163000000Y-65400000D03*
%TD*%
D34*
%TO.C,C13*%
X175000000Y-66400000D03*
X175000000Y-64500000D03*
%TD*%
D35*
%TO.C,C7*%
X152995000Y-62900000D03*
X151445000Y-62900000D03*
%TD*%
D31*
%TO.C,C8*%
X157790000Y-61900000D03*
X158750000Y-61900000D03*
%TD*%
D36*
%TO.C,R3*%
X179000000Y-63200000D03*
X179000000Y-62180000D03*
%TD*%
D14*
%TO.C,C11*%
X152724000Y-55750000D03*
X152724000Y-54790000D03*
%TD*%
D18*
%TO.C,FB1*%
X154773000Y-61122000D03*
X154773000Y-62697000D03*
%TD*%
D23*
%TO.C,R1*%
X148000000Y-48400000D03*
X148000000Y-49420000D03*
%TD*%
D35*
%TO.C,C6*%
X153025000Y-60750000D03*
X151475000Y-60750000D03*
%TD*%
M02*
