%TF.GenerationSoftware,KiCad,Pcbnew,7.0.8*%
%TF.CreationDate,2025-06-01T22:45:16-07:00*%
%TF.ProjectId,ohm_project,6f686d5f-7072-46f6-9a65-63742e6b6963,rev?*%
%TF.SameCoordinates,Original*%
%TF.FileFunction,Legend,Top*%
%TF.FilePolarity,Positive*%
%FSLAX46Y46*%
G04 Gerber Fmt 4.6, Leading zero omitted, Abs format (unit mm)*
G04 Created by KiCad (PCBNEW 7.0.8) date 2025-06-01 22:45:16*
%MOMM*%
%LPD*%
G01*
G04 APERTURE LIST*
%ADD10C,0.150000*%
%ADD11C,0.300000*%
%ADD12C,0.200000*%
%ADD13C,0.120000*%
G04 APERTURE END LIST*
D10*
X176136779Y-47669819D02*
X176136779Y-48479342D01*
X176136779Y-48479342D02*
X176184398Y-48574580D01*
X176184398Y-48574580D02*
X176232017Y-48622200D01*
X176232017Y-48622200D02*
X176327255Y-48669819D01*
X176327255Y-48669819D02*
X176517731Y-48669819D01*
X176517731Y-48669819D02*
X176612969Y-48622200D01*
X176612969Y-48622200D02*
X176660588Y-48574580D01*
X176660588Y-48574580D02*
X176708207Y-48479342D01*
X176708207Y-48479342D02*
X176708207Y-47669819D01*
X177136779Y-48622200D02*
X177279636Y-48669819D01*
X177279636Y-48669819D02*
X177517731Y-48669819D01*
X177517731Y-48669819D02*
X177612969Y-48622200D01*
X177612969Y-48622200D02*
X177660588Y-48574580D01*
X177660588Y-48574580D02*
X177708207Y-48479342D01*
X177708207Y-48479342D02*
X177708207Y-48384104D01*
X177708207Y-48384104D02*
X177660588Y-48288866D01*
X177660588Y-48288866D02*
X177612969Y-48241247D01*
X177612969Y-48241247D02*
X177517731Y-48193628D01*
X177517731Y-48193628D02*
X177327255Y-48146009D01*
X177327255Y-48146009D02*
X177232017Y-48098390D01*
X177232017Y-48098390D02*
X177184398Y-48050771D01*
X177184398Y-48050771D02*
X177136779Y-47955533D01*
X177136779Y-47955533D02*
X177136779Y-47860295D01*
X177136779Y-47860295D02*
X177184398Y-47765057D01*
X177184398Y-47765057D02*
X177232017Y-47717438D01*
X177232017Y-47717438D02*
X177327255Y-47669819D01*
X177327255Y-47669819D02*
X177565350Y-47669819D01*
X177565350Y-47669819D02*
X177708207Y-47717438D01*
X178470112Y-48146009D02*
X178612969Y-48193628D01*
X178612969Y-48193628D02*
X178660588Y-48241247D01*
X178660588Y-48241247D02*
X178708207Y-48336485D01*
X178708207Y-48336485D02*
X178708207Y-48479342D01*
X178708207Y-48479342D02*
X178660588Y-48574580D01*
X178660588Y-48574580D02*
X178612969Y-48622200D01*
X178612969Y-48622200D02*
X178517731Y-48669819D01*
X178517731Y-48669819D02*
X178136779Y-48669819D01*
X178136779Y-48669819D02*
X178136779Y-47669819D01*
X178136779Y-47669819D02*
X178470112Y-47669819D01*
X178470112Y-47669819D02*
X178565350Y-47717438D01*
X178565350Y-47717438D02*
X178612969Y-47765057D01*
X178612969Y-47765057D02*
X178660588Y-47860295D01*
X178660588Y-47860295D02*
X178660588Y-47955533D01*
X178660588Y-47955533D02*
X178612969Y-48050771D01*
X178612969Y-48050771D02*
X178565350Y-48098390D01*
X178565350Y-48098390D02*
X178470112Y-48146009D01*
X178470112Y-48146009D02*
X178136779Y-48146009D01*
X152336779Y-72469819D02*
X152336779Y-71469819D01*
X152765350Y-71565057D02*
X152812969Y-71517438D01*
X152812969Y-71517438D02*
X152908207Y-71469819D01*
X152908207Y-71469819D02*
X153146302Y-71469819D01*
X153146302Y-71469819D02*
X153241540Y-71517438D01*
X153241540Y-71517438D02*
X153289159Y-71565057D01*
X153289159Y-71565057D02*
X153336778Y-71660295D01*
X153336778Y-71660295D02*
X153336778Y-71755533D01*
X153336778Y-71755533D02*
X153289159Y-71898390D01*
X153289159Y-71898390D02*
X152717731Y-72469819D01*
X152717731Y-72469819D02*
X153336778Y-72469819D01*
X154336778Y-72374580D02*
X154289159Y-72422200D01*
X154289159Y-72422200D02*
X154146302Y-72469819D01*
X154146302Y-72469819D02*
X154051064Y-72469819D01*
X154051064Y-72469819D02*
X153908207Y-72422200D01*
X153908207Y-72422200D02*
X153812969Y-72326961D01*
X153812969Y-72326961D02*
X153765350Y-72231723D01*
X153765350Y-72231723D02*
X153717731Y-72041247D01*
X153717731Y-72041247D02*
X153717731Y-71898390D01*
X153717731Y-71898390D02*
X153765350Y-71707914D01*
X153765350Y-71707914D02*
X153812969Y-71612676D01*
X153812969Y-71612676D02*
X153908207Y-71517438D01*
X153908207Y-71517438D02*
X154051064Y-71469819D01*
X154051064Y-71469819D02*
X154146302Y-71469819D01*
X154146302Y-71469819D02*
X154289159Y-71517438D01*
X154289159Y-71517438D02*
X154336778Y-71565057D01*
X143670112Y-57546009D02*
X143812969Y-57593628D01*
X143812969Y-57593628D02*
X143860588Y-57641247D01*
X143860588Y-57641247D02*
X143908207Y-57736485D01*
X143908207Y-57736485D02*
X143908207Y-57879342D01*
X143908207Y-57879342D02*
X143860588Y-57974580D01*
X143860588Y-57974580D02*
X143812969Y-58022200D01*
X143812969Y-58022200D02*
X143717731Y-58069819D01*
X143717731Y-58069819D02*
X143336779Y-58069819D01*
X143336779Y-58069819D02*
X143336779Y-57069819D01*
X143336779Y-57069819D02*
X143670112Y-57069819D01*
X143670112Y-57069819D02*
X143765350Y-57117438D01*
X143765350Y-57117438D02*
X143812969Y-57165057D01*
X143812969Y-57165057D02*
X143860588Y-57260295D01*
X143860588Y-57260295D02*
X143860588Y-57355533D01*
X143860588Y-57355533D02*
X143812969Y-57450771D01*
X143812969Y-57450771D02*
X143765350Y-57498390D01*
X143765350Y-57498390D02*
X143670112Y-57546009D01*
X143670112Y-57546009D02*
X143336779Y-57546009D01*
X144527255Y-57069819D02*
X144717731Y-57069819D01*
X144717731Y-57069819D02*
X144812969Y-57117438D01*
X144812969Y-57117438D02*
X144908207Y-57212676D01*
X144908207Y-57212676D02*
X144955826Y-57403152D01*
X144955826Y-57403152D02*
X144955826Y-57736485D01*
X144955826Y-57736485D02*
X144908207Y-57926961D01*
X144908207Y-57926961D02*
X144812969Y-58022200D01*
X144812969Y-58022200D02*
X144717731Y-58069819D01*
X144717731Y-58069819D02*
X144527255Y-58069819D01*
X144527255Y-58069819D02*
X144432017Y-58022200D01*
X144432017Y-58022200D02*
X144336779Y-57926961D01*
X144336779Y-57926961D02*
X144289160Y-57736485D01*
X144289160Y-57736485D02*
X144289160Y-57403152D01*
X144289160Y-57403152D02*
X144336779Y-57212676D01*
X144336779Y-57212676D02*
X144432017Y-57117438D01*
X144432017Y-57117438D02*
X144527255Y-57069819D01*
X145574874Y-57069819D02*
X145765350Y-57069819D01*
X145765350Y-57069819D02*
X145860588Y-57117438D01*
X145860588Y-57117438D02*
X145955826Y-57212676D01*
X145955826Y-57212676D02*
X146003445Y-57403152D01*
X146003445Y-57403152D02*
X146003445Y-57736485D01*
X146003445Y-57736485D02*
X145955826Y-57926961D01*
X145955826Y-57926961D02*
X145860588Y-58022200D01*
X145860588Y-58022200D02*
X145765350Y-58069819D01*
X145765350Y-58069819D02*
X145574874Y-58069819D01*
X145574874Y-58069819D02*
X145479636Y-58022200D01*
X145479636Y-58022200D02*
X145384398Y-57926961D01*
X145384398Y-57926961D02*
X145336779Y-57736485D01*
X145336779Y-57736485D02*
X145336779Y-57403152D01*
X145336779Y-57403152D02*
X145384398Y-57212676D01*
X145384398Y-57212676D02*
X145479636Y-57117438D01*
X145479636Y-57117438D02*
X145574874Y-57069819D01*
X146289160Y-57069819D02*
X146860588Y-57069819D01*
X146574874Y-58069819D02*
X146574874Y-57069819D01*
D11*
X153154510Y-45500828D02*
X153154510Y-46715114D01*
X153154510Y-46715114D02*
X153225939Y-46857971D01*
X153225939Y-46857971D02*
X153297368Y-46929400D01*
X153297368Y-46929400D02*
X153440225Y-47000828D01*
X153440225Y-47000828D02*
X153725939Y-47000828D01*
X153725939Y-47000828D02*
X153868796Y-46929400D01*
X153868796Y-46929400D02*
X153940225Y-46857971D01*
X153940225Y-46857971D02*
X154011653Y-46715114D01*
X154011653Y-46715114D02*
X154011653Y-45500828D01*
X154654511Y-46572257D02*
X155368797Y-46572257D01*
X154511654Y-47000828D02*
X155011654Y-45500828D01*
X155011654Y-45500828D02*
X155511654Y-47000828D01*
X156868796Y-47000828D02*
X156368796Y-46286542D01*
X156011653Y-47000828D02*
X156011653Y-45500828D01*
X156011653Y-45500828D02*
X156583082Y-45500828D01*
X156583082Y-45500828D02*
X156725939Y-45572257D01*
X156725939Y-45572257D02*
X156797368Y-45643685D01*
X156797368Y-45643685D02*
X156868796Y-45786542D01*
X156868796Y-45786542D02*
X156868796Y-46000828D01*
X156868796Y-46000828D02*
X156797368Y-46143685D01*
X156797368Y-46143685D02*
X156725939Y-46215114D01*
X156725939Y-46215114D02*
X156583082Y-46286542D01*
X156583082Y-46286542D02*
X156011653Y-46286542D01*
X157297368Y-45500828D02*
X158154511Y-45500828D01*
X157725939Y-47000828D02*
X157725939Y-45500828D01*
D12*
X166969673Y-46619600D02*
X167148244Y-46667219D01*
X167148244Y-46667219D02*
X167445863Y-46667219D01*
X167445863Y-46667219D02*
X167564911Y-46619600D01*
X167564911Y-46619600D02*
X167624435Y-46571980D01*
X167624435Y-46571980D02*
X167683958Y-46476742D01*
X167683958Y-46476742D02*
X167683958Y-46381504D01*
X167683958Y-46381504D02*
X167624435Y-46286266D01*
X167624435Y-46286266D02*
X167564911Y-46238647D01*
X167564911Y-46238647D02*
X167445863Y-46191028D01*
X167445863Y-46191028D02*
X167207768Y-46143409D01*
X167207768Y-46143409D02*
X167088720Y-46095790D01*
X167088720Y-46095790D02*
X167029197Y-46048171D01*
X167029197Y-46048171D02*
X166969673Y-45952933D01*
X166969673Y-45952933D02*
X166969673Y-45857695D01*
X166969673Y-45857695D02*
X167029197Y-45762457D01*
X167029197Y-45762457D02*
X167088720Y-45714838D01*
X167088720Y-45714838D02*
X167207768Y-45667219D01*
X167207768Y-45667219D02*
X167505387Y-45667219D01*
X167505387Y-45667219D02*
X167683958Y-45714838D01*
X168100625Y-45667219D02*
X168398244Y-46667219D01*
X168398244Y-46667219D02*
X168636339Y-45952933D01*
X168636339Y-45952933D02*
X168874434Y-46667219D01*
X168874434Y-46667219D02*
X169172054Y-45667219D01*
X169648244Y-46667219D02*
X169648244Y-45667219D01*
X169648244Y-45667219D02*
X169945863Y-45667219D01*
X169945863Y-45667219D02*
X170124434Y-45714838D01*
X170124434Y-45714838D02*
X170243482Y-45810076D01*
X170243482Y-45810076D02*
X170303005Y-45905314D01*
X170303005Y-45905314D02*
X170362529Y-46095790D01*
X170362529Y-46095790D02*
X170362529Y-46238647D01*
X170362529Y-46238647D02*
X170303005Y-46429123D01*
X170303005Y-46429123D02*
X170243482Y-46524361D01*
X170243482Y-46524361D02*
X170124434Y-46619600D01*
X170124434Y-46619600D02*
X169945863Y-46667219D01*
X169945863Y-46667219D02*
X169648244Y-46667219D01*
D10*
X154859580Y-58686666D02*
X154907200Y-58734285D01*
X154907200Y-58734285D02*
X154954819Y-58877142D01*
X154954819Y-58877142D02*
X154954819Y-58972380D01*
X154954819Y-58972380D02*
X154907200Y-59115237D01*
X154907200Y-59115237D02*
X154811961Y-59210475D01*
X154811961Y-59210475D02*
X154716723Y-59258094D01*
X154716723Y-59258094D02*
X154526247Y-59305713D01*
X154526247Y-59305713D02*
X154383390Y-59305713D01*
X154383390Y-59305713D02*
X154192914Y-59258094D01*
X154192914Y-59258094D02*
X154097676Y-59210475D01*
X154097676Y-59210475D02*
X154002438Y-59115237D01*
X154002438Y-59115237D02*
X153954819Y-58972380D01*
X153954819Y-58972380D02*
X153954819Y-58877142D01*
X153954819Y-58877142D02*
X154002438Y-58734285D01*
X154002438Y-58734285D02*
X154050057Y-58686666D01*
X153954819Y-57781904D02*
X153954819Y-58258094D01*
X153954819Y-58258094D02*
X154431009Y-58305713D01*
X154431009Y-58305713D02*
X154383390Y-58258094D01*
X154383390Y-58258094D02*
X154335771Y-58162856D01*
X154335771Y-58162856D02*
X154335771Y-57924761D01*
X154335771Y-57924761D02*
X154383390Y-57829523D01*
X154383390Y-57829523D02*
X154431009Y-57781904D01*
X154431009Y-57781904D02*
X154526247Y-57734285D01*
X154526247Y-57734285D02*
X154764342Y-57734285D01*
X154764342Y-57734285D02*
X154859580Y-57781904D01*
X154859580Y-57781904D02*
X154907200Y-57829523D01*
X154907200Y-57829523D02*
X154954819Y-57924761D01*
X154954819Y-57924761D02*
X154954819Y-58162856D01*
X154954819Y-58162856D02*
X154907200Y-58258094D01*
X154907200Y-58258094D02*
X154859580Y-58305713D01*
X167907142Y-58309580D02*
X167859523Y-58357200D01*
X167859523Y-58357200D02*
X167716666Y-58404819D01*
X167716666Y-58404819D02*
X167621428Y-58404819D01*
X167621428Y-58404819D02*
X167478571Y-58357200D01*
X167478571Y-58357200D02*
X167383333Y-58261961D01*
X167383333Y-58261961D02*
X167335714Y-58166723D01*
X167335714Y-58166723D02*
X167288095Y-57976247D01*
X167288095Y-57976247D02*
X167288095Y-57833390D01*
X167288095Y-57833390D02*
X167335714Y-57642914D01*
X167335714Y-57642914D02*
X167383333Y-57547676D01*
X167383333Y-57547676D02*
X167478571Y-57452438D01*
X167478571Y-57452438D02*
X167621428Y-57404819D01*
X167621428Y-57404819D02*
X167716666Y-57404819D01*
X167716666Y-57404819D02*
X167859523Y-57452438D01*
X167859523Y-57452438D02*
X167907142Y-57500057D01*
X168859523Y-58404819D02*
X168288095Y-58404819D01*
X168573809Y-58404819D02*
X168573809Y-57404819D01*
X168573809Y-57404819D02*
X168478571Y-57547676D01*
X168478571Y-57547676D02*
X168383333Y-57642914D01*
X168383333Y-57642914D02*
X168288095Y-57690533D01*
X169240476Y-57500057D02*
X169288095Y-57452438D01*
X169288095Y-57452438D02*
X169383333Y-57404819D01*
X169383333Y-57404819D02*
X169621428Y-57404819D01*
X169621428Y-57404819D02*
X169716666Y-57452438D01*
X169716666Y-57452438D02*
X169764285Y-57500057D01*
X169764285Y-57500057D02*
X169811904Y-57595295D01*
X169811904Y-57595295D02*
X169811904Y-57690533D01*
X169811904Y-57690533D02*
X169764285Y-57833390D01*
X169764285Y-57833390D02*
X169192857Y-58404819D01*
X169192857Y-58404819D02*
X169811904Y-58404819D01*
X179654819Y-69250594D02*
X178654819Y-69250594D01*
X178654819Y-69250594D02*
X178654819Y-69012499D01*
X178654819Y-69012499D02*
X178702438Y-68869642D01*
X178702438Y-68869642D02*
X178797676Y-68774404D01*
X178797676Y-68774404D02*
X178892914Y-68726785D01*
X178892914Y-68726785D02*
X179083390Y-68679166D01*
X179083390Y-68679166D02*
X179226247Y-68679166D01*
X179226247Y-68679166D02*
X179416723Y-68726785D01*
X179416723Y-68726785D02*
X179511961Y-68774404D01*
X179511961Y-68774404D02*
X179607200Y-68869642D01*
X179607200Y-68869642D02*
X179654819Y-69012499D01*
X179654819Y-69012499D02*
X179654819Y-69250594D01*
X179654819Y-67726785D02*
X179654819Y-68298213D01*
X179654819Y-68012499D02*
X178654819Y-68012499D01*
X178654819Y-68012499D02*
X178797676Y-68107737D01*
X178797676Y-68107737D02*
X178892914Y-68202975D01*
X178892914Y-68202975D02*
X178940533Y-68298213D01*
X148023809Y-57478628D02*
X148023809Y-57954819D01*
X147690476Y-56954819D02*
X148023809Y-57478628D01*
X148023809Y-57478628D02*
X148357142Y-56954819D01*
X149214285Y-57954819D02*
X148642857Y-57954819D01*
X148928571Y-57954819D02*
X148928571Y-56954819D01*
X148928571Y-56954819D02*
X148833333Y-57097676D01*
X148833333Y-57097676D02*
X148738095Y-57192914D01*
X148738095Y-57192914D02*
X148642857Y-57240533D01*
X151757142Y-50559580D02*
X151709523Y-50607200D01*
X151709523Y-50607200D02*
X151566666Y-50654819D01*
X151566666Y-50654819D02*
X151471428Y-50654819D01*
X151471428Y-50654819D02*
X151328571Y-50607200D01*
X151328571Y-50607200D02*
X151233333Y-50511961D01*
X151233333Y-50511961D02*
X151185714Y-50416723D01*
X151185714Y-50416723D02*
X151138095Y-50226247D01*
X151138095Y-50226247D02*
X151138095Y-50083390D01*
X151138095Y-50083390D02*
X151185714Y-49892914D01*
X151185714Y-49892914D02*
X151233333Y-49797676D01*
X151233333Y-49797676D02*
X151328571Y-49702438D01*
X151328571Y-49702438D02*
X151471428Y-49654819D01*
X151471428Y-49654819D02*
X151566666Y-49654819D01*
X151566666Y-49654819D02*
X151709523Y-49702438D01*
X151709523Y-49702438D02*
X151757142Y-49750057D01*
X152709523Y-50654819D02*
X152138095Y-50654819D01*
X152423809Y-50654819D02*
X152423809Y-49654819D01*
X152423809Y-49654819D02*
X152328571Y-49797676D01*
X152328571Y-49797676D02*
X152233333Y-49892914D01*
X152233333Y-49892914D02*
X152138095Y-49940533D01*
X153328571Y-49654819D02*
X153423809Y-49654819D01*
X153423809Y-49654819D02*
X153519047Y-49702438D01*
X153519047Y-49702438D02*
X153566666Y-49750057D01*
X153566666Y-49750057D02*
X153614285Y-49845295D01*
X153614285Y-49845295D02*
X153661904Y-50035771D01*
X153661904Y-50035771D02*
X153661904Y-50273866D01*
X153661904Y-50273866D02*
X153614285Y-50464342D01*
X153614285Y-50464342D02*
X153566666Y-50559580D01*
X153566666Y-50559580D02*
X153519047Y-50607200D01*
X153519047Y-50607200D02*
X153423809Y-50654819D01*
X153423809Y-50654819D02*
X153328571Y-50654819D01*
X153328571Y-50654819D02*
X153233333Y-50607200D01*
X153233333Y-50607200D02*
X153185714Y-50559580D01*
X153185714Y-50559580D02*
X153138095Y-50464342D01*
X153138095Y-50464342D02*
X153090476Y-50273866D01*
X153090476Y-50273866D02*
X153090476Y-50035771D01*
X153090476Y-50035771D02*
X153138095Y-49845295D01*
X153138095Y-49845295D02*
X153185714Y-49750057D01*
X153185714Y-49750057D02*
X153233333Y-49702438D01*
X153233333Y-49702438D02*
X153328571Y-49654819D01*
D12*
X159738095Y-49514719D02*
X159738095Y-50324242D01*
X159738095Y-50324242D02*
X159785714Y-50419480D01*
X159785714Y-50419480D02*
X159833333Y-50467100D01*
X159833333Y-50467100D02*
X159928571Y-50514719D01*
X159928571Y-50514719D02*
X160119047Y-50514719D01*
X160119047Y-50514719D02*
X160214285Y-50467100D01*
X160214285Y-50467100D02*
X160261904Y-50419480D01*
X160261904Y-50419480D02*
X160309523Y-50324242D01*
X160309523Y-50324242D02*
X160309523Y-49514719D01*
X161309523Y-50514719D02*
X160738095Y-50514719D01*
X161023809Y-50514719D02*
X161023809Y-49514719D01*
X161023809Y-49514719D02*
X160928571Y-49657576D01*
X160928571Y-49657576D02*
X160833333Y-49752814D01*
X160833333Y-49752814D02*
X160738095Y-49800433D01*
D10*
X170183333Y-51854819D02*
X169850000Y-51378628D01*
X169611905Y-51854819D02*
X169611905Y-50854819D01*
X169611905Y-50854819D02*
X169992857Y-50854819D01*
X169992857Y-50854819D02*
X170088095Y-50902438D01*
X170088095Y-50902438D02*
X170135714Y-50950057D01*
X170135714Y-50950057D02*
X170183333Y-51045295D01*
X170183333Y-51045295D02*
X170183333Y-51188152D01*
X170183333Y-51188152D02*
X170135714Y-51283390D01*
X170135714Y-51283390D02*
X170088095Y-51331009D01*
X170088095Y-51331009D02*
X169992857Y-51378628D01*
X169992857Y-51378628D02*
X169611905Y-51378628D01*
X170564286Y-50950057D02*
X170611905Y-50902438D01*
X170611905Y-50902438D02*
X170707143Y-50854819D01*
X170707143Y-50854819D02*
X170945238Y-50854819D01*
X170945238Y-50854819D02*
X171040476Y-50902438D01*
X171040476Y-50902438D02*
X171088095Y-50950057D01*
X171088095Y-50950057D02*
X171135714Y-51045295D01*
X171135714Y-51045295D02*
X171135714Y-51140533D01*
X171135714Y-51140533D02*
X171088095Y-51283390D01*
X171088095Y-51283390D02*
X170516667Y-51854819D01*
X170516667Y-51854819D02*
X171135714Y-51854819D01*
X148607200Y-47533332D02*
X148654819Y-47390475D01*
X148654819Y-47390475D02*
X148654819Y-47152380D01*
X148654819Y-47152380D02*
X148607200Y-47057142D01*
X148607200Y-47057142D02*
X148559580Y-47009523D01*
X148559580Y-47009523D02*
X148464342Y-46961904D01*
X148464342Y-46961904D02*
X148369104Y-46961904D01*
X148369104Y-46961904D02*
X148273866Y-47009523D01*
X148273866Y-47009523D02*
X148226247Y-47057142D01*
X148226247Y-47057142D02*
X148178628Y-47152380D01*
X148178628Y-47152380D02*
X148131009Y-47342856D01*
X148131009Y-47342856D02*
X148083390Y-47438094D01*
X148083390Y-47438094D02*
X148035771Y-47485713D01*
X148035771Y-47485713D02*
X147940533Y-47533332D01*
X147940533Y-47533332D02*
X147845295Y-47533332D01*
X147845295Y-47533332D02*
X147750057Y-47485713D01*
X147750057Y-47485713D02*
X147702438Y-47438094D01*
X147702438Y-47438094D02*
X147654819Y-47342856D01*
X147654819Y-47342856D02*
X147654819Y-47104761D01*
X147654819Y-47104761D02*
X147702438Y-46961904D01*
X147654819Y-46628570D02*
X148654819Y-46390475D01*
X148654819Y-46390475D02*
X147940533Y-46199999D01*
X147940533Y-46199999D02*
X148654819Y-46009523D01*
X148654819Y-46009523D02*
X147654819Y-45771428D01*
X148654819Y-44866666D02*
X148654819Y-45438094D01*
X148654819Y-45152380D02*
X147654819Y-45152380D01*
X147654819Y-45152380D02*
X147797676Y-45247618D01*
X147797676Y-45247618D02*
X147892914Y-45342856D01*
X147892914Y-45342856D02*
X147940533Y-45438094D01*
X164583333Y-63609580D02*
X164535714Y-63657200D01*
X164535714Y-63657200D02*
X164392857Y-63704819D01*
X164392857Y-63704819D02*
X164297619Y-63704819D01*
X164297619Y-63704819D02*
X164154762Y-63657200D01*
X164154762Y-63657200D02*
X164059524Y-63561961D01*
X164059524Y-63561961D02*
X164011905Y-63466723D01*
X164011905Y-63466723D02*
X163964286Y-63276247D01*
X163964286Y-63276247D02*
X163964286Y-63133390D01*
X163964286Y-63133390D02*
X164011905Y-62942914D01*
X164011905Y-62942914D02*
X164059524Y-62847676D01*
X164059524Y-62847676D02*
X164154762Y-62752438D01*
X164154762Y-62752438D02*
X164297619Y-62704819D01*
X164297619Y-62704819D02*
X164392857Y-62704819D01*
X164392857Y-62704819D02*
X164535714Y-62752438D01*
X164535714Y-62752438D02*
X164583333Y-62800057D01*
X164964286Y-62800057D02*
X165011905Y-62752438D01*
X165011905Y-62752438D02*
X165107143Y-62704819D01*
X165107143Y-62704819D02*
X165345238Y-62704819D01*
X165345238Y-62704819D02*
X165440476Y-62752438D01*
X165440476Y-62752438D02*
X165488095Y-62800057D01*
X165488095Y-62800057D02*
X165535714Y-62895295D01*
X165535714Y-62895295D02*
X165535714Y-62990533D01*
X165535714Y-62990533D02*
X165488095Y-63133390D01*
X165488095Y-63133390D02*
X164916667Y-63704819D01*
X164916667Y-63704819D02*
X165535714Y-63704819D01*
X172188095Y-60204819D02*
X172188095Y-61014342D01*
X172188095Y-61014342D02*
X172235714Y-61109580D01*
X172235714Y-61109580D02*
X172283333Y-61157200D01*
X172283333Y-61157200D02*
X172378571Y-61204819D01*
X172378571Y-61204819D02*
X172569047Y-61204819D01*
X172569047Y-61204819D02*
X172664285Y-61157200D01*
X172664285Y-61157200D02*
X172711904Y-61109580D01*
X172711904Y-61109580D02*
X172759523Y-61014342D01*
X172759523Y-61014342D02*
X172759523Y-60204819D01*
X173188095Y-60300057D02*
X173235714Y-60252438D01*
X173235714Y-60252438D02*
X173330952Y-60204819D01*
X173330952Y-60204819D02*
X173569047Y-60204819D01*
X173569047Y-60204819D02*
X173664285Y-60252438D01*
X173664285Y-60252438D02*
X173711904Y-60300057D01*
X173711904Y-60300057D02*
X173759523Y-60395295D01*
X173759523Y-60395295D02*
X173759523Y-60490533D01*
X173759523Y-60490533D02*
X173711904Y-60633390D01*
X173711904Y-60633390D02*
X173140476Y-61204819D01*
X173140476Y-61204819D02*
X173759523Y-61204819D01*
X160063333Y-64604819D02*
X159730000Y-64128628D01*
X159491905Y-64604819D02*
X159491905Y-63604819D01*
X159491905Y-63604819D02*
X159872857Y-63604819D01*
X159872857Y-63604819D02*
X159968095Y-63652438D01*
X159968095Y-63652438D02*
X160015714Y-63700057D01*
X160015714Y-63700057D02*
X160063333Y-63795295D01*
X160063333Y-63795295D02*
X160063333Y-63938152D01*
X160063333Y-63938152D02*
X160015714Y-64033390D01*
X160015714Y-64033390D02*
X159968095Y-64081009D01*
X159968095Y-64081009D02*
X159872857Y-64128628D01*
X159872857Y-64128628D02*
X159491905Y-64128628D01*
X160920476Y-63938152D02*
X160920476Y-64604819D01*
X160682381Y-63557200D02*
X160444286Y-64271485D01*
X160444286Y-64271485D02*
X161063333Y-64271485D01*
X156267333Y-48515580D02*
X156219714Y-48563200D01*
X156219714Y-48563200D02*
X156076857Y-48610819D01*
X156076857Y-48610819D02*
X155981619Y-48610819D01*
X155981619Y-48610819D02*
X155838762Y-48563200D01*
X155838762Y-48563200D02*
X155743524Y-48467961D01*
X155743524Y-48467961D02*
X155695905Y-48372723D01*
X155695905Y-48372723D02*
X155648286Y-48182247D01*
X155648286Y-48182247D02*
X155648286Y-48039390D01*
X155648286Y-48039390D02*
X155695905Y-47848914D01*
X155695905Y-47848914D02*
X155743524Y-47753676D01*
X155743524Y-47753676D02*
X155838762Y-47658438D01*
X155838762Y-47658438D02*
X155981619Y-47610819D01*
X155981619Y-47610819D02*
X156076857Y-47610819D01*
X156076857Y-47610819D02*
X156219714Y-47658438D01*
X156219714Y-47658438D02*
X156267333Y-47706057D01*
X156600667Y-47610819D02*
X157219714Y-47610819D01*
X157219714Y-47610819D02*
X156886381Y-47991771D01*
X156886381Y-47991771D02*
X157029238Y-47991771D01*
X157029238Y-47991771D02*
X157124476Y-48039390D01*
X157124476Y-48039390D02*
X157172095Y-48087009D01*
X157172095Y-48087009D02*
X157219714Y-48182247D01*
X157219714Y-48182247D02*
X157219714Y-48420342D01*
X157219714Y-48420342D02*
X157172095Y-48515580D01*
X157172095Y-48515580D02*
X157124476Y-48563200D01*
X157124476Y-48563200D02*
X157029238Y-48610819D01*
X157029238Y-48610819D02*
X156743524Y-48610819D01*
X156743524Y-48610819D02*
X156648286Y-48563200D01*
X156648286Y-48563200D02*
X156600667Y-48515580D01*
X165583333Y-51859580D02*
X165535714Y-51907200D01*
X165535714Y-51907200D02*
X165392857Y-51954819D01*
X165392857Y-51954819D02*
X165297619Y-51954819D01*
X165297619Y-51954819D02*
X165154762Y-51907200D01*
X165154762Y-51907200D02*
X165059524Y-51811961D01*
X165059524Y-51811961D02*
X165011905Y-51716723D01*
X165011905Y-51716723D02*
X164964286Y-51526247D01*
X164964286Y-51526247D02*
X164964286Y-51383390D01*
X164964286Y-51383390D02*
X165011905Y-51192914D01*
X165011905Y-51192914D02*
X165059524Y-51097676D01*
X165059524Y-51097676D02*
X165154762Y-51002438D01*
X165154762Y-51002438D02*
X165297619Y-50954819D01*
X165297619Y-50954819D02*
X165392857Y-50954819D01*
X165392857Y-50954819D02*
X165535714Y-51002438D01*
X165535714Y-51002438D02*
X165583333Y-51050057D01*
X166440476Y-51288152D02*
X166440476Y-51954819D01*
X166202381Y-50907200D02*
X165964286Y-51621485D01*
X165964286Y-51621485D02*
X166583333Y-51621485D01*
X156295333Y-50039580D02*
X156247714Y-50087200D01*
X156247714Y-50087200D02*
X156104857Y-50134819D01*
X156104857Y-50134819D02*
X156009619Y-50134819D01*
X156009619Y-50134819D02*
X155866762Y-50087200D01*
X155866762Y-50087200D02*
X155771524Y-49991961D01*
X155771524Y-49991961D02*
X155723905Y-49896723D01*
X155723905Y-49896723D02*
X155676286Y-49706247D01*
X155676286Y-49706247D02*
X155676286Y-49563390D01*
X155676286Y-49563390D02*
X155723905Y-49372914D01*
X155723905Y-49372914D02*
X155771524Y-49277676D01*
X155771524Y-49277676D02*
X155866762Y-49182438D01*
X155866762Y-49182438D02*
X156009619Y-49134819D01*
X156009619Y-49134819D02*
X156104857Y-49134819D01*
X156104857Y-49134819D02*
X156247714Y-49182438D01*
X156247714Y-49182438D02*
X156295333Y-49230057D01*
X157247714Y-50134819D02*
X156676286Y-50134819D01*
X156962000Y-50134819D02*
X156962000Y-49134819D01*
X156962000Y-49134819D02*
X156866762Y-49277676D01*
X156866762Y-49277676D02*
X156771524Y-49372914D01*
X156771524Y-49372914D02*
X156676286Y-49420533D01*
X154233333Y-49359580D02*
X154185714Y-49407200D01*
X154185714Y-49407200D02*
X154042857Y-49454819D01*
X154042857Y-49454819D02*
X153947619Y-49454819D01*
X153947619Y-49454819D02*
X153804762Y-49407200D01*
X153804762Y-49407200D02*
X153709524Y-49311961D01*
X153709524Y-49311961D02*
X153661905Y-49216723D01*
X153661905Y-49216723D02*
X153614286Y-49026247D01*
X153614286Y-49026247D02*
X153614286Y-48883390D01*
X153614286Y-48883390D02*
X153661905Y-48692914D01*
X153661905Y-48692914D02*
X153709524Y-48597676D01*
X153709524Y-48597676D02*
X153804762Y-48502438D01*
X153804762Y-48502438D02*
X153947619Y-48454819D01*
X153947619Y-48454819D02*
X154042857Y-48454819D01*
X154042857Y-48454819D02*
X154185714Y-48502438D01*
X154185714Y-48502438D02*
X154233333Y-48550057D01*
X154709524Y-49454819D02*
X154900000Y-49454819D01*
X154900000Y-49454819D02*
X154995238Y-49407200D01*
X154995238Y-49407200D02*
X155042857Y-49359580D01*
X155042857Y-49359580D02*
X155138095Y-49216723D01*
X155138095Y-49216723D02*
X155185714Y-49026247D01*
X155185714Y-49026247D02*
X155185714Y-48645295D01*
X155185714Y-48645295D02*
X155138095Y-48550057D01*
X155138095Y-48550057D02*
X155090476Y-48502438D01*
X155090476Y-48502438D02*
X154995238Y-48454819D01*
X154995238Y-48454819D02*
X154804762Y-48454819D01*
X154804762Y-48454819D02*
X154709524Y-48502438D01*
X154709524Y-48502438D02*
X154661905Y-48550057D01*
X154661905Y-48550057D02*
X154614286Y-48645295D01*
X154614286Y-48645295D02*
X154614286Y-48883390D01*
X154614286Y-48883390D02*
X154661905Y-48978628D01*
X154661905Y-48978628D02*
X154709524Y-49026247D01*
X154709524Y-49026247D02*
X154804762Y-49073866D01*
X154804762Y-49073866D02*
X154995238Y-49073866D01*
X154995238Y-49073866D02*
X155090476Y-49026247D01*
X155090476Y-49026247D02*
X155138095Y-48978628D01*
X155138095Y-48978628D02*
X155185714Y-48883390D01*
X162333333Y-64454819D02*
X162000000Y-63978628D01*
X161761905Y-64454819D02*
X161761905Y-63454819D01*
X161761905Y-63454819D02*
X162142857Y-63454819D01*
X162142857Y-63454819D02*
X162238095Y-63502438D01*
X162238095Y-63502438D02*
X162285714Y-63550057D01*
X162285714Y-63550057D02*
X162333333Y-63645295D01*
X162333333Y-63645295D02*
X162333333Y-63788152D01*
X162333333Y-63788152D02*
X162285714Y-63883390D01*
X162285714Y-63883390D02*
X162238095Y-63931009D01*
X162238095Y-63931009D02*
X162142857Y-63978628D01*
X162142857Y-63978628D02*
X161761905Y-63978628D01*
X163238095Y-63454819D02*
X162761905Y-63454819D01*
X162761905Y-63454819D02*
X162714286Y-63931009D01*
X162714286Y-63931009D02*
X162761905Y-63883390D01*
X162761905Y-63883390D02*
X162857143Y-63835771D01*
X162857143Y-63835771D02*
X163095238Y-63835771D01*
X163095238Y-63835771D02*
X163190476Y-63883390D01*
X163190476Y-63883390D02*
X163238095Y-63931009D01*
X163238095Y-63931009D02*
X163285714Y-64026247D01*
X163285714Y-64026247D02*
X163285714Y-64264342D01*
X163285714Y-64264342D02*
X163238095Y-64359580D01*
X163238095Y-64359580D02*
X163190476Y-64407200D01*
X163190476Y-64407200D02*
X163095238Y-64454819D01*
X163095238Y-64454819D02*
X162857143Y-64454819D01*
X162857143Y-64454819D02*
X162761905Y-64407200D01*
X162761905Y-64407200D02*
X162714286Y-64359580D01*
X175359580Y-69342857D02*
X175407200Y-69390476D01*
X175407200Y-69390476D02*
X175454819Y-69533333D01*
X175454819Y-69533333D02*
X175454819Y-69628571D01*
X175454819Y-69628571D02*
X175407200Y-69771428D01*
X175407200Y-69771428D02*
X175311961Y-69866666D01*
X175311961Y-69866666D02*
X175216723Y-69914285D01*
X175216723Y-69914285D02*
X175026247Y-69961904D01*
X175026247Y-69961904D02*
X174883390Y-69961904D01*
X174883390Y-69961904D02*
X174692914Y-69914285D01*
X174692914Y-69914285D02*
X174597676Y-69866666D01*
X174597676Y-69866666D02*
X174502438Y-69771428D01*
X174502438Y-69771428D02*
X174454819Y-69628571D01*
X174454819Y-69628571D02*
X174454819Y-69533333D01*
X174454819Y-69533333D02*
X174502438Y-69390476D01*
X174502438Y-69390476D02*
X174550057Y-69342857D01*
X175454819Y-68390476D02*
X175454819Y-68961904D01*
X175454819Y-68676190D02*
X174454819Y-68676190D01*
X174454819Y-68676190D02*
X174597676Y-68771428D01*
X174597676Y-68771428D02*
X174692914Y-68866666D01*
X174692914Y-68866666D02*
X174740533Y-68961904D01*
X174454819Y-68057142D02*
X174454819Y-67438095D01*
X174454819Y-67438095D02*
X174835771Y-67771428D01*
X174835771Y-67771428D02*
X174835771Y-67628571D01*
X174835771Y-67628571D02*
X174883390Y-67533333D01*
X174883390Y-67533333D02*
X174931009Y-67485714D01*
X174931009Y-67485714D02*
X175026247Y-67438095D01*
X175026247Y-67438095D02*
X175264342Y-67438095D01*
X175264342Y-67438095D02*
X175359580Y-67485714D01*
X175359580Y-67485714D02*
X175407200Y-67533333D01*
X175407200Y-67533333D02*
X175454819Y-67628571D01*
X175454819Y-67628571D02*
X175454819Y-67914285D01*
X175454819Y-67914285D02*
X175407200Y-68009523D01*
X175407200Y-68009523D02*
X175359580Y-68057142D01*
X149053333Y-63259580D02*
X149005714Y-63307200D01*
X149005714Y-63307200D02*
X148862857Y-63354819D01*
X148862857Y-63354819D02*
X148767619Y-63354819D01*
X148767619Y-63354819D02*
X148624762Y-63307200D01*
X148624762Y-63307200D02*
X148529524Y-63211961D01*
X148529524Y-63211961D02*
X148481905Y-63116723D01*
X148481905Y-63116723D02*
X148434286Y-62926247D01*
X148434286Y-62926247D02*
X148434286Y-62783390D01*
X148434286Y-62783390D02*
X148481905Y-62592914D01*
X148481905Y-62592914D02*
X148529524Y-62497676D01*
X148529524Y-62497676D02*
X148624762Y-62402438D01*
X148624762Y-62402438D02*
X148767619Y-62354819D01*
X148767619Y-62354819D02*
X148862857Y-62354819D01*
X148862857Y-62354819D02*
X149005714Y-62402438D01*
X149005714Y-62402438D02*
X149053333Y-62450057D01*
X149386667Y-62354819D02*
X150053333Y-62354819D01*
X150053333Y-62354819D02*
X149624762Y-63354819D01*
X157333333Y-64859580D02*
X157285714Y-64907200D01*
X157285714Y-64907200D02*
X157142857Y-64954819D01*
X157142857Y-64954819D02*
X157047619Y-64954819D01*
X157047619Y-64954819D02*
X156904762Y-64907200D01*
X156904762Y-64907200D02*
X156809524Y-64811961D01*
X156809524Y-64811961D02*
X156761905Y-64716723D01*
X156761905Y-64716723D02*
X156714286Y-64526247D01*
X156714286Y-64526247D02*
X156714286Y-64383390D01*
X156714286Y-64383390D02*
X156761905Y-64192914D01*
X156761905Y-64192914D02*
X156809524Y-64097676D01*
X156809524Y-64097676D02*
X156904762Y-64002438D01*
X156904762Y-64002438D02*
X157047619Y-63954819D01*
X157047619Y-63954819D02*
X157142857Y-63954819D01*
X157142857Y-63954819D02*
X157285714Y-64002438D01*
X157285714Y-64002438D02*
X157333333Y-64050057D01*
X157904762Y-64383390D02*
X157809524Y-64335771D01*
X157809524Y-64335771D02*
X157761905Y-64288152D01*
X157761905Y-64288152D02*
X157714286Y-64192914D01*
X157714286Y-64192914D02*
X157714286Y-64145295D01*
X157714286Y-64145295D02*
X157761905Y-64050057D01*
X157761905Y-64050057D02*
X157809524Y-64002438D01*
X157809524Y-64002438D02*
X157904762Y-63954819D01*
X157904762Y-63954819D02*
X158095238Y-63954819D01*
X158095238Y-63954819D02*
X158190476Y-64002438D01*
X158190476Y-64002438D02*
X158238095Y-64050057D01*
X158238095Y-64050057D02*
X158285714Y-64145295D01*
X158285714Y-64145295D02*
X158285714Y-64192914D01*
X158285714Y-64192914D02*
X158238095Y-64288152D01*
X158238095Y-64288152D02*
X158190476Y-64335771D01*
X158190476Y-64335771D02*
X158095238Y-64383390D01*
X158095238Y-64383390D02*
X157904762Y-64383390D01*
X157904762Y-64383390D02*
X157809524Y-64431009D01*
X157809524Y-64431009D02*
X157761905Y-64478628D01*
X157761905Y-64478628D02*
X157714286Y-64573866D01*
X157714286Y-64573866D02*
X157714286Y-64764342D01*
X157714286Y-64764342D02*
X157761905Y-64859580D01*
X157761905Y-64859580D02*
X157809524Y-64907200D01*
X157809524Y-64907200D02*
X157904762Y-64954819D01*
X157904762Y-64954819D02*
X158095238Y-64954819D01*
X158095238Y-64954819D02*
X158190476Y-64907200D01*
X158190476Y-64907200D02*
X158238095Y-64859580D01*
X158238095Y-64859580D02*
X158285714Y-64764342D01*
X158285714Y-64764342D02*
X158285714Y-64573866D01*
X158285714Y-64573866D02*
X158238095Y-64478628D01*
X158238095Y-64478628D02*
X158190476Y-64431009D01*
X158190476Y-64431009D02*
X158095238Y-64383390D01*
X180754819Y-62856666D02*
X180278628Y-63189999D01*
X180754819Y-63428094D02*
X179754819Y-63428094D01*
X179754819Y-63428094D02*
X179754819Y-63047142D01*
X179754819Y-63047142D02*
X179802438Y-62951904D01*
X179802438Y-62951904D02*
X179850057Y-62904285D01*
X179850057Y-62904285D02*
X179945295Y-62856666D01*
X179945295Y-62856666D02*
X180088152Y-62856666D01*
X180088152Y-62856666D02*
X180183390Y-62904285D01*
X180183390Y-62904285D02*
X180231009Y-62951904D01*
X180231009Y-62951904D02*
X180278628Y-63047142D01*
X180278628Y-63047142D02*
X180278628Y-63428094D01*
X179754819Y-62523332D02*
X179754819Y-61904285D01*
X179754819Y-61904285D02*
X180135771Y-62237618D01*
X180135771Y-62237618D02*
X180135771Y-62094761D01*
X180135771Y-62094761D02*
X180183390Y-61999523D01*
X180183390Y-61999523D02*
X180231009Y-61951904D01*
X180231009Y-61951904D02*
X180326247Y-61904285D01*
X180326247Y-61904285D02*
X180564342Y-61904285D01*
X180564342Y-61904285D02*
X180659580Y-61951904D01*
X180659580Y-61951904D02*
X180707200Y-61999523D01*
X180707200Y-61999523D02*
X180754819Y-62094761D01*
X180754819Y-62094761D02*
X180754819Y-62380475D01*
X180754819Y-62380475D02*
X180707200Y-62475713D01*
X180707200Y-62475713D02*
X180659580Y-62523332D01*
X151557142Y-57559580D02*
X151509523Y-57607200D01*
X151509523Y-57607200D02*
X151366666Y-57654819D01*
X151366666Y-57654819D02*
X151271428Y-57654819D01*
X151271428Y-57654819D02*
X151128571Y-57607200D01*
X151128571Y-57607200D02*
X151033333Y-57511961D01*
X151033333Y-57511961D02*
X150985714Y-57416723D01*
X150985714Y-57416723D02*
X150938095Y-57226247D01*
X150938095Y-57226247D02*
X150938095Y-57083390D01*
X150938095Y-57083390D02*
X150985714Y-56892914D01*
X150985714Y-56892914D02*
X151033333Y-56797676D01*
X151033333Y-56797676D02*
X151128571Y-56702438D01*
X151128571Y-56702438D02*
X151271428Y-56654819D01*
X151271428Y-56654819D02*
X151366666Y-56654819D01*
X151366666Y-56654819D02*
X151509523Y-56702438D01*
X151509523Y-56702438D02*
X151557142Y-56750057D01*
X152509523Y-57654819D02*
X151938095Y-57654819D01*
X152223809Y-57654819D02*
X152223809Y-56654819D01*
X152223809Y-56654819D02*
X152128571Y-56797676D01*
X152128571Y-56797676D02*
X152033333Y-56892914D01*
X152033333Y-56892914D02*
X151938095Y-56940533D01*
X153461904Y-57654819D02*
X152890476Y-57654819D01*
X153176190Y-57654819D02*
X153176190Y-56654819D01*
X153176190Y-56654819D02*
X153080952Y-56797676D01*
X153080952Y-56797676D02*
X152985714Y-56892914D01*
X152985714Y-56892914D02*
X152890476Y-56940533D01*
X156401009Y-62742833D02*
X156401009Y-63076166D01*
X156924819Y-63076166D02*
X155924819Y-63076166D01*
X155924819Y-63076166D02*
X155924819Y-62599976D01*
X156401009Y-61885690D02*
X156448628Y-61742833D01*
X156448628Y-61742833D02*
X156496247Y-61695214D01*
X156496247Y-61695214D02*
X156591485Y-61647595D01*
X156591485Y-61647595D02*
X156734342Y-61647595D01*
X156734342Y-61647595D02*
X156829580Y-61695214D01*
X156829580Y-61695214D02*
X156877200Y-61742833D01*
X156877200Y-61742833D02*
X156924819Y-61838071D01*
X156924819Y-61838071D02*
X156924819Y-62219023D01*
X156924819Y-62219023D02*
X155924819Y-62219023D01*
X155924819Y-62219023D02*
X155924819Y-61885690D01*
X155924819Y-61885690D02*
X155972438Y-61790452D01*
X155972438Y-61790452D02*
X156020057Y-61742833D01*
X156020057Y-61742833D02*
X156115295Y-61695214D01*
X156115295Y-61695214D02*
X156210533Y-61695214D01*
X156210533Y-61695214D02*
X156305771Y-61742833D01*
X156305771Y-61742833D02*
X156353390Y-61790452D01*
X156353390Y-61790452D02*
X156401009Y-61885690D01*
X156401009Y-61885690D02*
X156401009Y-62219023D01*
X156924819Y-60695214D02*
X156924819Y-61266642D01*
X156924819Y-60980928D02*
X155924819Y-60980928D01*
X155924819Y-60980928D02*
X156067676Y-61076166D01*
X156067676Y-61076166D02*
X156162914Y-61171404D01*
X156162914Y-61171404D02*
X156210533Y-61266642D01*
X149704819Y-48816666D02*
X149228628Y-49149999D01*
X149704819Y-49388094D02*
X148704819Y-49388094D01*
X148704819Y-49388094D02*
X148704819Y-49007142D01*
X148704819Y-49007142D02*
X148752438Y-48911904D01*
X148752438Y-48911904D02*
X148800057Y-48864285D01*
X148800057Y-48864285D02*
X148895295Y-48816666D01*
X148895295Y-48816666D02*
X149038152Y-48816666D01*
X149038152Y-48816666D02*
X149133390Y-48864285D01*
X149133390Y-48864285D02*
X149181009Y-48911904D01*
X149181009Y-48911904D02*
X149228628Y-49007142D01*
X149228628Y-49007142D02*
X149228628Y-49388094D01*
X149704819Y-47864285D02*
X149704819Y-48435713D01*
X149704819Y-48149999D02*
X148704819Y-48149999D01*
X148704819Y-48149999D02*
X148847676Y-48245237D01*
X148847676Y-48245237D02*
X148942914Y-48340475D01*
X148942914Y-48340475D02*
X148990533Y-48435713D01*
X149070333Y-60895580D02*
X149022714Y-60943200D01*
X149022714Y-60943200D02*
X148879857Y-60990819D01*
X148879857Y-60990819D02*
X148784619Y-60990819D01*
X148784619Y-60990819D02*
X148641762Y-60943200D01*
X148641762Y-60943200D02*
X148546524Y-60847961D01*
X148546524Y-60847961D02*
X148498905Y-60752723D01*
X148498905Y-60752723D02*
X148451286Y-60562247D01*
X148451286Y-60562247D02*
X148451286Y-60419390D01*
X148451286Y-60419390D02*
X148498905Y-60228914D01*
X148498905Y-60228914D02*
X148546524Y-60133676D01*
X148546524Y-60133676D02*
X148641762Y-60038438D01*
X148641762Y-60038438D02*
X148784619Y-59990819D01*
X148784619Y-59990819D02*
X148879857Y-59990819D01*
X148879857Y-59990819D02*
X149022714Y-60038438D01*
X149022714Y-60038438D02*
X149070333Y-60086057D01*
X149927476Y-59990819D02*
X149737000Y-59990819D01*
X149737000Y-59990819D02*
X149641762Y-60038438D01*
X149641762Y-60038438D02*
X149594143Y-60086057D01*
X149594143Y-60086057D02*
X149498905Y-60228914D01*
X149498905Y-60228914D02*
X149451286Y-60419390D01*
X149451286Y-60419390D02*
X149451286Y-60800342D01*
X149451286Y-60800342D02*
X149498905Y-60895580D01*
X149498905Y-60895580D02*
X149546524Y-60943200D01*
X149546524Y-60943200D02*
X149641762Y-60990819D01*
X149641762Y-60990819D02*
X149832238Y-60990819D01*
X149832238Y-60990819D02*
X149927476Y-60943200D01*
X149927476Y-60943200D02*
X149975095Y-60895580D01*
X149975095Y-60895580D02*
X150022714Y-60800342D01*
X150022714Y-60800342D02*
X150022714Y-60562247D01*
X150022714Y-60562247D02*
X149975095Y-60467009D01*
X149975095Y-60467009D02*
X149927476Y-60419390D01*
X149927476Y-60419390D02*
X149832238Y-60371771D01*
X149832238Y-60371771D02*
X149641762Y-60371771D01*
X149641762Y-60371771D02*
X149546524Y-60419390D01*
X149546524Y-60419390D02*
X149498905Y-60467009D01*
X149498905Y-60467009D02*
X149451286Y-60562247D01*
%TO.C,U3*%
X180345000Y-50350000D02*
X180195000Y-50350000D01*
X177795000Y-50350000D02*
X176395000Y-50350000D01*
X180795000Y-50650000D02*
X180345000Y-50650000D01*
X180345000Y-50650000D02*
X180345000Y-50350000D01*
X174645000Y-52700000D02*
X174645000Y-51700000D01*
X174220000Y-55575000D02*
X174220000Y-56300000D01*
X174645000Y-56300000D02*
X174645000Y-57300000D01*
X174220000Y-56300000D02*
X174645000Y-56300000D01*
X180345000Y-58350000D02*
X180795000Y-58350000D01*
X180345000Y-58650000D02*
X180345000Y-58350000D01*
X180195000Y-58650000D02*
X180345000Y-58650000D01*
X176395000Y-58650000D02*
X177795000Y-58650000D01*
D13*
%TO.C,C5*%
X154860000Y-56857836D02*
X154860000Y-56642164D01*
X154140000Y-56857836D02*
X154140000Y-56642164D01*
%TO.C,J1*%
X174410000Y-42070000D02*
X174410000Y-43400000D01*
X173080000Y-42070000D02*
X174410000Y-42070000D01*
X171810000Y-42070000D02*
X164130000Y-42070000D01*
X171810000Y-42070000D02*
X171810000Y-44730000D01*
X164130000Y-42070000D02*
X164130000Y-44730000D01*
X171810000Y-44730000D02*
X164130000Y-44730000D01*
%TO.C,C12*%
X168338748Y-60885000D02*
X168861252Y-60885000D01*
X168338748Y-59415000D02*
X168861252Y-59415000D01*
%TO.C,D1*%
X179735000Y-64015000D02*
X178265000Y-64015000D01*
X178265000Y-64015000D02*
X178265000Y-66300000D01*
X179735000Y-66300000D02*
X179735000Y-64015000D01*
%TO.C,Y1*%
X152000000Y-52000000D02*
X148700000Y-52000000D01*
X148700000Y-52000000D02*
X148700000Y-56000000D01*
%TO.C,C10*%
X152364000Y-53119836D02*
X152364000Y-52904164D01*
X153084000Y-53119836D02*
X153084000Y-52904164D01*
%TO.C,U1*%
X156890000Y-52302500D02*
X156890000Y-52752500D01*
X156890000Y-52752500D02*
X155600000Y-52752500D01*
X156890000Y-59522500D02*
X156890000Y-59072500D01*
X157340000Y-52302500D02*
X156890000Y-52302500D01*
X157340000Y-59522500D02*
X156890000Y-59522500D01*
X163660000Y-52302500D02*
X164110000Y-52302500D01*
X163660000Y-59522500D02*
X164110000Y-59522500D01*
X164110000Y-52302500D02*
X164110000Y-52752500D01*
X164110000Y-59522500D02*
X164110000Y-59072500D01*
%TO.C,J3*%
X155190000Y-73530000D02*
X155190000Y-72200000D01*
X156520000Y-73530000D02*
X155190000Y-73530000D01*
X157790000Y-73530000D02*
X165470000Y-73530000D01*
X157790000Y-73530000D02*
X157790000Y-70870000D01*
X165470000Y-73530000D02*
X165470000Y-70870000D01*
X157790000Y-70870000D02*
X165470000Y-70870000D01*
%TO.C,J2*%
X160930000Y-42070000D02*
X160930000Y-43400000D01*
X159600000Y-42070000D02*
X160930000Y-42070000D01*
X158330000Y-42070000D02*
X150650000Y-42070000D01*
X158330000Y-42070000D02*
X158330000Y-44730000D01*
X150650000Y-42070000D02*
X150650000Y-44730000D01*
X158330000Y-44730000D02*
X150650000Y-44730000D01*
%TO.C,R2*%
X170980000Y-53256359D02*
X170980000Y-53563641D01*
X170220000Y-53256359D02*
X170220000Y-53563641D01*
%TO.C,SW1*%
X144745000Y-48350000D02*
X143955000Y-48350000D01*
X142945000Y-48950000D02*
X142945000Y-54650000D01*
X145795000Y-50200000D02*
X145795000Y-51900000D01*
X145795000Y-53200000D02*
X145795000Y-53400000D01*
X143955000Y-55250000D02*
X144745000Y-55250000D01*
%TO.C,C2*%
X163827836Y-62260000D02*
X163612164Y-62260000D01*
X163827836Y-61540000D02*
X163612164Y-61540000D01*
%TO.C,U2*%
X173610000Y-62150000D02*
X173610000Y-68160000D01*
X166790000Y-64400000D02*
X166790000Y-68160000D01*
X173610000Y-68160000D02*
X172350000Y-68160000D01*
X166790000Y-68160000D02*
X168050000Y-68160000D01*
%TO.C,R4*%
X160383641Y-65780000D02*
X160076359Y-65780000D01*
X160383641Y-65020000D02*
X160076359Y-65020000D01*
%TO.C,C3*%
X158386164Y-48050000D02*
X158601836Y-48050000D01*
X158386164Y-48770000D02*
X158601836Y-48770000D01*
%TO.C,C1*%
X158358164Y-49320000D02*
X158573836Y-49320000D01*
X158358164Y-50040000D02*
X158573836Y-50040000D01*
%TO.C,C9*%
X155058000Y-51565836D02*
X155058000Y-51350164D01*
X155778000Y-51565836D02*
X155778000Y-51350164D01*
%TO.C,R5*%
X162336359Y-65020000D02*
X162643641Y-65020000D01*
X162336359Y-65780000D02*
X162643641Y-65780000D01*
%TO.C,C13*%
X174265000Y-65711252D02*
X174265000Y-65188748D01*
X175735000Y-65711252D02*
X175735000Y-65188748D01*
%TO.C,C7*%
X152360580Y-63410000D02*
X152079420Y-63410000D01*
X152360580Y-62390000D02*
X152079420Y-62390000D01*
%TO.C,C8*%
X158162164Y-61540000D02*
X158377836Y-61540000D01*
X158162164Y-62260000D02*
X158377836Y-62260000D01*
%TO.C,R3*%
X178620000Y-62843641D02*
X178620000Y-62536359D01*
X179380000Y-62843641D02*
X179380000Y-62536359D01*
%TO.C,C11*%
X152364000Y-55377836D02*
X152364000Y-55162164D01*
X153084000Y-55377836D02*
X153084000Y-55162164D01*
%TO.C,FB1*%
X155283000Y-61746721D02*
X155283000Y-62072279D01*
X154263000Y-61746721D02*
X154263000Y-62072279D01*
%TO.C,R1*%
X148380000Y-48756359D02*
X148380000Y-49063641D01*
X147620000Y-48756359D02*
X147620000Y-49063641D01*
%TO.C,C6*%
X152390580Y-61260000D02*
X152109420Y-61260000D01*
X152390580Y-60240000D02*
X152109420Y-60240000D01*
%TD*%
M02*
